<?xml version="1.0" encoding="UTF-8"?>
<svg id="Layer_2" data-name="Layer 2" xmlns="http://www.w3.org/2000/svg" viewBox="0 0 268.28 133.82">
  <defs>
    <style>
      .cls-1 {
        fill: #fff;
      }
    </style>
  </defs>
  <g id="Layer_1-2" data-name="Layer 1">
    <path class="cls-1" d="m156.89,13.72c0-4.05.08-7.38-.03-10.7-.07-2.1.75-2.84,2.82-2.81,6.46.09,12.92,0,19.38.06,2.33.02,4.08,1.54,5.92,2.71,5.38,3.44,10.74,6.92,16.75,10.8,0-3.97.12-7.14-.04-10.29-.12-2.35.45-3.52,3.11-3.45,6.02.15,12.04.11,18.06.04,1.75-.02,3.08.77,4.46,1.62,6.24,3.82,12.49,7.64,19.6,11.98,0-3.73.09-6.85-.03-9.95-.09-2.46.85-3.42,3.35-3.32,4.99.2,9.98.27,14.97.24,2.16-.01,2.83.94,2.81,2.91-.04,5.14-.08,10.28.03,15.42.05,2.39-1.12,3.08-3.22,3.05-3.03-.04-6.07,0-9.69,0,2.98,6.35,6.71,11.42,10.15,16.63,2.03,3.07,3.03,6.2,2.91,9.87-.16,4.99-.14,9.99.05,14.97.1,2.72-.9,3.81-3.55,3.49-.14-.02-.3-.02-.44,0-2.73.34-6.88-1.31-7.89.6-1.3,2.44,2.26,4.92,3.69,7.38,2.14,3.68,4.38,7.31,6.8,10.8,1.87,2.69,1.62,4.89-.15,7.59-3.84,5.85-7.34,11.93-11.52,18.81,3.8,0,6.78.05,9.77-.02,2.05-.05,3.35.37,3.28,2.88-.13,5.14-.08,10.28-.03,15.42.02,2-.72,2.93-2.84,2.9-5.14-.06-10.28-.08-15.42.08-2.47.07-2.99-1.13-2.95-3.22.07-3.19.02-6.39.02-10.37-6.72,4.25-12.96,7.98-18.93,12.1-2.65,1.83-4.66,1.66-7.17.02-6-3.91-12.12-7.65-19.1-12.03,0,3.88-.07,6.99.02,10.09.07,2.4-.8,3.41-3.34,3.33-5.28-.15-10.58-.14-15.86,0-2.53.07-3.26-.94-3.32-3.35-.09-3.34.74-6.71-.3-10.73-6.11,3.89-12.04,7.48-17.76,11.38-2.82,1.92-5.76,2.25-9.01,2.71-13.88,1.97-25.55-2.62-36.14-11.09-1-.8-2.2-1.34-4.1-2.48,0,3.77-.1,6.9.03,10.02.1,2.36-.59,3.52-3.18,3.46-5.43-.11-10.87-.08-16.3.06-2.43.06-2.92-1.07-2.94-3.19-.04-3.46.51-6.98-.64-10.85-6.69,4.22-13.14,8.24-19.53,12.35-1.39.9-2.71,1.6-4.44,1.58-6.61-.07-13.22-.1-19.82-.04-1.61.01-2.75-.77-4.01-1.53-6.36-3.85-12.74-7.66-19.85-11.93,0,3.74-.11,6.76.03,9.76.13,2.57-.68,3.76-3.46,3.67-4.69-.16-9.4-.11-14.1-.02-2.28.04-3.61-.51-3.56-3.16.09-5.14.03-10.28-.06-15.42-.03-1.93.8-2.58,2.64-2.54,3.48.07,6.97.02,11.33.02-4.03-6.28-7.46-12.01-11.3-17.46C.81,91.65-.05,88.71.09,85.18c.19-4.69.25-9.41-.06-14.09-.25-3.65,1.19-4.65,4.54-4.25,1.88.22,3.81-.02,5.72.03,2.53.06,3.23-.59,1.64-2.98-3.58-5.37-6.9-10.92-10.48-16.29-1.6-2.4-1.58-4.33.02-6.79,3.98-6.13,7.66-12.46,11.98-19.56-3.74,0-6.86-.13-9.96.04-2.44.13-3.46-.62-3.38-3.19.15-4.99.1-9.98.03-14.97C.11,1.18.58.1,2.81.14c5.29.09,10.57.09,15.86-.02,2.29-.05,2.67,1.13,2.63,3.01-.07,3.22-.02,6.45-.02,9.65,1.91.78,2.89-.63,4.01-1.33,5.22-3.27,10.49-6.49,15.53-10.03,2.49-1.75,4.49-1.48,6.82,0,6.19,3.93,12.42,7.77,18.93,11.83,1.03-3.34.46-6.66.43-9.9-.02-2.5.81-3.3,3.3-3.24,6.16.15,12.34.13,18.5,0,2.11-.04,3.64,1.02,5.23,2.01,5.81,3.6,11.59,7.27,18.1,11.37,0-4.03.08-7.34-.03-10.64-.07-2.09.73-2.86,2.81-2.84,6.16.08,12.33.04,18.49.02,1.72,0,3.05.88,4.42,1.75,6.07,3.83,12.16,7.63,19.06,11.95Zm67.01-6.69c0,3.87-.15,7.23.05,10.57.16,2.74-.96,3.63-3.57,3.56-4.55-.14-9.11-.22-13.65-.05-3.22.12-5.93-.61-8.63-2.48-5.18-3.6-10.65-6.76-15.9-10.27-2.64-1.76-3.23-.9-3.11,1.82.1,2.49-.14,5,.07,7.48.25,2.86-.75,3.93-3.67,3.79-4.1-.2-8.23-.23-12.33.01-4.13.24-7.62-.71-11.08-3.15-5.55-3.91-11.46-7.32-17.83-11.33,0,3.77-.13,6.69.04,9.58.17,3.07-1.16,4.22-4.13,4.17-5.28-.09-10.57-.04-15.85.03-1.87.02-3.41-.68-4.91-1.66-4.3-2.8-8.58-5.65-12.94-8.35-2.07-1.28-4.48-4.26-6.22-3.29-2.22,1.24-.81,4.82-.88,7.37-.17,6.46-.14,5.81-6.7,6.57-11.24,1.3-20.65-2.13-29.28-8.9-2.18-1.71-4.75-2.94-6.96-4.62-1.58-1.2-2.68-.99-4.27.05-6.14,4.01-12.41,7.84-18.63,11.72-1.76,1.1-3.26,2.39-4.36,4.22-3.64,6.02-7.3,12.04-11.17,17.92-1.29,1.96-1.05,3.25.17,5.06,3.77,5.6,7.29,11.36,10.98,17.01,1.08,1.65,1.74,3.33,1.72,5.33-.07,5.58-.15,11.15-.04,16.73.05,2.6-1.14,3.3-3.47,3.22-3.17-.1-6.35-.03-10.34-.03,2.91,4.78,5.33,8.91,7.91,12.94,2.29,3.58,4.06,7.96,7.27,10.37,6.84,5.14,14.47,9.24,22.55,14.25,0-3.7.18-6.6-.04-9.47-.28-3.61.61-5.44,4.78-5.07,4.37.39,8.82.36,13.2.06,3.7-.26,4.59,1.3,4.31,4.6-.22,2.72-.05,5.46-.05,9,2.78-1.7,5.05-2.75,6.9-4.28,9.69-8.01,20.66-10.78,33.11-9.37,3.49.4,6.48,1.02,9.35,2.95,5.11,3.44,10.35,6.68,15.51,10.06,2.09,1.37,3.16,1.27,3.05-1.59-.11-2.64.07-5.29-.06-7.92-.12-2.4.69-3.47,3.25-3.4,5.28.14,10.57.15,15.85.03,2.3-.05,3.16.75,3.07,3.05-.13,3.26-.03,6.53-.03,10.58,5.84-3.67,10.91-6.58,15.68-9.94,3.91-2.75,8.04-3.36,12.71-3.79,11.26-1.04,21.1,1.48,29.67,8.88.66.57,1.6.82,2.21,1.42,4.54,4.47,8.43,3.25,13.72.26,11.42-6.45,20.91-14.31,26.47-26.4.36-.79.82-1.59,1.39-2.24,2.6-2.99,3.3-5.79.23-9.1-1.86-2.01-2.81-4.85-4.58-6.97-5.88-7.04-7.67-14.99-7.06-24.07.63-9.31.16-9.34,9.63-9.28.15,0,.29-.03.44-.02,3.04.28,3.78-.55,1.95-3.34-4.03-6.13-7.88-12.37-11.76-18.59-.73-1.16-1.7-1.95-2.85-2.66-6.73-4.15-13.43-8.36-20.9-13.02Z"/>
  </g>
</svg>