<?xml version="1.0" encoding="UTF-8"?>
<svg id="Layer_2" data-name="Layer 2" xmlns="http://www.w3.org/2000/svg" viewBox="0 0 268.19 111.3">
  <defs>
    <style>
      .cls-1 {
        fill: #fff;
      }
    </style>
  </defs>
  <g id="Layer_1-2" data-name="Layer 1">
    <g>
      <path class="cls-1" d="m154.74,99.46c-1.43-1.46-2.84-2.95-4.29-4.39q-4.55-4.52-9.16.17-5.27,5.36.24,10.65c4.3,4.13,4.38,4.21,8.61-.24,1.75-1.84,4.34-3.04,4.96-5.86,1.93.38,1.07,1.3.34,2.05-2.65,2.73-5.37,5.39-7.99,8.15-1.18,1.24-2.2,1.24-3.32.02-.2-.22-.41-.42-.63-.61-9.5-8.53-9.39-10.97.84-18.77.84-.64,1.81-1.5,2.64-.4,2.42,3.23,6.52,5.04,7.75,9.25Z"/>
      <path class="cls-1" d="m257.96,21.32c-1.88-.15-3.04-1.59-4.21-2.85-8.03-8.62-8.45-5.44.02-14.44,3.01-3.2,4.95-3.64,8.25-.05,6.95,7.57,7.19,7.36-.56,14.72-1.04.99-1.8,2.37-3.5,2.62Zm9.02-9.93c0-1-.74-1.54-1.34-2.15-1.44-1.46-3.15-2.72-4.3-4.37-2.4-3.45-4.49-2.93-6.74.03-.44.58-.98,1.08-1.5,1.6-5,4.96-5.04,5.01.15,9.95,1.45,1.38,2.44,3.34,4.47,4.02.73.24,9.19-8.2,9.26-9.07Z"/>
      <path class="cls-1" d="m8.94,69.83c-.32.3-.64.6-.95.91-7.84,7.9-7.81,7.97.79,15.18,1.36,1.14,2.16,1.29,3.62.02,8.44-7.35,8.39-10.18-.6-16.91-.42-.32-1.1-.3-1.66-.44.18-.37.35-.74.53-1.11.61.35,1.29.62,1.83,1.05,9.7,7.58,9.66,11.01-.02,18.58-1.42,1.11-2.45,1.37-3.71-.06-.96-1.1-2.1-2.04-3.07-3.13-1.89-2.13-6.14-4.14-5.21-6.35,1.41-3.32,4.46-6.43,8.45-7.74Z"/>
      <path class="cls-1" d="m140.12,16.08c2.76-.06,3.33,4.9,6.46,3.18,2.1-1.15,3.42-3.64,5.41-5.08,3.56-2.58,2.67-4.53-.06-7.16-6.22-5.98-6.18-6.14-12.05.02-1.27,1.34-3.8,2.03-3.18,4.71-2.27-.63-1.4-1.85-.43-2.85,2.56-2.62,5.23-5.13,7.82-7.72,1.17-1.17,2.22-1.22,3.34.07.77.88,1.66,1.66,2.41,2.56,2.04,2.42,6.53,4.54,5.78,7.15-1.2,4.22-5.88,6.65-9.05,9.87-.96.98-1.92.23-2.65-.54-1.3-1.38-2.54-2.82-3.81-4.23Z"/>
      <path class="cls-1" d="m258.74,69.47c-4.89.92-6.7,5.54-10,8.37-.59.51.06,1.11.42,1.48,2.43,2.53,4.89,5.02,7.36,7.52.2.2.5.52.7.48,4.24-.84,5.73-5.03,8.78-7.34,1.86-1.41.19-2.53-.73-3.56-.69-.78-1.37-1.53-1.31-2.66q5.21,4.76.28,9.55-6.48,6.28-12.78-.04c-.72-.73-1.38-1.55-2.2-2.15-2.58-1.89-2.34-3.6-.03-5.58,2.33-2,4.43-4.27,6.7-6.34.94-.86,2.11-2.15,2.84.26Z"/>
      <path class="cls-1" d="m64.8,102.08c-.03-2.31-6.18-10.4-8.29-10.94-.84-.22-1.39.21-1.92.72-.84.81-1.77,1.56-2.48,2.47-1.71,2.19-6.19,4.16-4.91,6.3,2.25,3.72,5.12,7.88,10.2,8.85-1.83,2.26-3.21.57-4.23-.74-2.44-3.13-8.05-5.22-7.12-9.14.97-4.07,5.85-6.66,9.18-9.73.67-.62,1.39-.23,1.93.32,2.95,3.06,5.93,6.09,8.78,9.24,1.27,1.41-.29,1.96-1.15,2.65Z"/>
      <path class="cls-1" d="m110.63,101.21c-1.83-4.14-5.41-6.89-8.75-9.48-2.35-1.82-3.8,1.81-5.17,3.26-1.71,1.8-5.98,3.33-4.27,5.98,2.29,3.55,5.07,7.49,9.9,8.52-.55.92-1.11,1.86-2.38.99-.48-.33-.88-.77-1.32-1.16-9.64-8.67-9.58-10.45.57-18.69.98-.79,1.88-1.61,3-.44,3.04,3.17,6.05,6.37,9.01,9.62.49.54-.13,1.04-.59,1.41Z"/>
      <path class="cls-1" d="m259.94,63.73c.23-.17.5-.3.7-.51,7.43-7.8,7.41-8.07-1.18-15.09-.65-.53-1.15-1.36-2.22-1.07-.71.19-8.64,7.96-8.6,8.61.12,2.19,3.05,2.7,3.04,5q-5.53-4.34-.55-9.26,6.64-6.57,12.13-1.05c6.1,6.13,5.17,9.84-3.32,13.36Z"/>
      <path class="cls-1" d="m221.71,99.45c-2.04-2.07-4.24-4.01-6.08-6.25-1.82-2.22-3.24-1.86-4.81.08-.09.11-.21.2-.32.3-7.31,6.99-7.19,6.88-.17,14.09,1.98,2.03,3.63,1.63,5.69.94-1.83,2.99-3.74,3.27-5.97.33-1.05-1.38-2.37-2.57-3.61-3.81-5.43-5.38-5.01-4.16.19-9.19,8.14-7.88,4.78-7.82,13.19.22.94.9,1.97,1.8,1.88,3.3Z"/>
      <path class="cls-1" d="m226.94,101.96c.75.68,1.52,1.35,2.26,2.03,2.11,1.94,4.05,5.98,6.28,5.42,3.61-.91,5.79-4.97,8.63-7.64.28-.26.56-.89.43-1.14-1.7-3.48-5.12-5.41-7.56-8.24-1.41-1.63-2.59.45-3.92.46,1.13-2.91,2.66-3.79,4.94-.99.09.11.2.22.3.32q9.4,9.41-.91,17.92c-.93.77-1.92,1.82-2.99.66-2.61-2.82-6.36-4.7-7.45-8.8Z"/>
      <path class="cls-1" d="m14.22,92.83c-2.39-2.18-4.17-1.76-6.47.61-6.93,7.14-6.94,6.91.25,13.88,1.79,1.74,3.32,1.86,5.34,1.29-1.56,2.22-3.22,2.93-5.12.36-.17-.23-.42-.4-.63-.61-8.41-8.29-8.29-8.16.18-16.33,2.95-2.85,4.63-2.12,6.45.79Z"/>
      <path class="cls-1" d="m182.53,98.91c-1.25,1.15-.89,2.06.11,3.29,6.94,8.47,7.8,8.55,15.37.72.87-.9,2.15-1.6,2.04-3.16,2.07.78.84,1.74.07,2.53-2.54,2.62-5.16,5.17-7.7,7.8-1.11,1.15-2.13,1.42-3.32.16-2.62-2.76-5.3-5.45-7.87-8.25-1.65-1.8-.95-2.83,1.3-3.1Z"/>
      <path class="cls-1" d="m222.54,12.22c-1.37-4.52-5.74-6.45-8.47-9.79-.7-.86-1.59-.45-2.28.21-3.05,2.88-6.1,5.76-8.57,9.17-1.19-.65-.68-1.4-.06-2.06,3.05-3.27,5.75-8.05,9.81-8.75,2.97-.52,5.45,4.54,8.02,7.23.91.95,3.63,1.71,1.55,4Z"/>
      <path class="cls-1" d="m68.37,9.45c1.9,4.06,5.65,6.49,8.58,9.63.72.77,1.6.69,2.29-.04,2.86-3.02,6.46-5.35,8.45-9.17.38,1.9-7.56,11.03-9.59,11.03-2.07,0-9.84-9.15-9.73-11.46Z"/>
      <path class="cls-1" d="m19.97,9.37c-2.83-1.65-4.84-4.2-7.06-6.5-1.5-1.57-2.87-1.98-4.25,0C6.41,6.11,1.68,7.43,1.42,12.22c-1.24-.86-1.87-1.73-.46-3.07C3.68,6.55,6.37,3.91,8.99,1.22c1.37-1.4,2.51-1.09,3.65.18,2.42,2.68,5.34,4.89,7.32,7.96Z"/>
      <path class="cls-1" d="m113.78,9.9c1.56,4,5.33,6.06,8,9.09,1.3,1.47,2.3.36,3.29-.57,2.55-2.41,5.11-4.8,7.66-7.2-1.82,3.77-5.41,5.95-8.06,8.99-.86.99-1.82.79-2.68.11-3.45-2.7-6.47-5.85-9.13-9.32-.46-.61.41-.88.92-1.1Z"/>
      <path class="cls-1" d="m181.57,12.53c2.73,1.49,4.45,4.1,6.73,6.08.72.62,1.19,1.72,2.46,1.45,1.73-.38,8.52-8.5,8.85-10.6,2.89,3.03-.7,4.15-1.99,5.32-2.53,2.29-4.27,7.32-8.03,6.01-3.34-1.17-6.08-4.76-8.02-8.26Z"/>
      <path class="cls-1" d="m176.82,98.33c-1.44-1.18-2.95-2.29-4.3-3.56-4.18-3.92-4.28-4.07-8.37.24-1.88,1.98-5.03,3.17-4.96,6.65-1.88-.66-1.69-1.65-.49-2.85,2.69-2.67,5.38-5.33,8.03-8.03,1.22-1.25,2.24-.97,3.32.18,2.28,2.44,4.94,4.52,6.77,7.37Z"/>
      <path class="cls-1" d="m26.47,15.2c.42.11.86.16,1.26.34,2.13.95,3.29,4.31,5.42,3.87,2.72-.56,4.33-3.57,6.39-5.55,1.22-1.18,2.7-2.22,3.23-3.99,1.7,1.22.18,1.93-.5,2.62-2.35,2.4-4.91,4.61-7.14,7.11-1.66,1.86-2.86,1.36-4.29-.11-1.42-1.46-2.91-2.86-4.36-4.28Z"/>
      <path class="cls-1" d="m260.08,91.92c-4.4-.6-5.5,3.77-8.34,5.49-4.72,2.86-.89,5.47-.06,8.2q-5.08-4.56-.34-9.43c1.61-1.65,3.36-3.16,4.98-4.8,1.55-1.57,2.73-1.2,3.76.54Z"/>
      <path class="cls-1" d="m229.99,16.97c.56.13,1.14.18,1.66.4,1.58.67,2.6,4.07,4.38,2.33,3-2.92,7.57-4.78,8.07-9.81,1.69.56,2.06,1.46.72,2.8-1.44,1.43-2.9,2.86-4.34,4.29q-5.37,5.32-10.49-.02Z"/>
      <path class="cls-1" d="m170.2,2.06c-4.23-.78-5.33,3.38-8.01,5.04-3.53,2.18-3.09,4.81-1.28,7.77-4-2.61-3.68-5.17-.12-7.99,1.93-1.53,3.63-3.37,5.29-5.2,1.65-1.81,2.91-1.53,4.12.39Z"/>
      <path class="cls-1" d="m159.05,101.5c2.61,1.14,4.08,3.57,5.94,5.5,2.19,2.28,3.94,3.17,6.13.21.61-.83,1.49-1.35,2.61-1.25-5.42,5.78-5.45,5.82-10.93.2-1.38-1.42-3.29-2.48-3.74-4.66Z"/>
      <path class="cls-1" d="m124.8,91.51c-4.3-.38-5.21,3.96-7.97,5.72-2.87,1.83-2.91,3.93-.38,6.15-4.23-2.2-4.44-2.9-1.42-6.07,2.21-2.32,4.56-4.51,6.9-6.69,1.38-1.29,2.58-1.54,2.87.89Z"/>
      <path class="cls-1" d="m31.72,109.48c5.1-.96,7.07-5.78,10.5-8.76,1.35-1.17-1.27-2.26-1.54-3.62,3.62,1.59,3.64,3.59.82,6.11-2.16,1.93-4.16,4.03-6.25,6.04-1.1,1.06-2.23,2.08-3.54.23Z"/>
      <path class="cls-1" d="m256.88,109.9c4.78-1.13,6.78-5.54,9.87-8.6,1.06-1.04-1.19-2.05-1.51-3.28,3.18,1.3,4.08,3.03,1.21,5.67-2.23,2.06-4.33,4.26-6.55,6.34-.98.92-2.13,2.39-3.03-.13Z"/>
      <path class="cls-1" d="m12.01,24.55c-.39-.19-.81-.6-1.17-.55-3.18.43-9.33,7.74-9.43,11.14-1.3-1.18-2.17-2.34-.45-3.94,2.66-2.47,5.2-5.07,7.86-7.54,1.43-1.33,2.59-1.03,3.2.89Z"/>
      <path class="cls-1" d="m76.67,109.48c5.22-2.15,9.15-5.59,11.05-11.06,1.07,1.2,1.52,2.25.02,3.63-2.66,2.43-5.19,5.02-7.67,7.63-1.32,1.39-2.36,1.47-3.4-.2Z"/>
      <path class="cls-1" d="m266.6,36.01c.05-1.41.51-2.83-.94-3.99-3.01-2.39-4.73-6.3-8.78-7.49.62-2.15,1.7-1.02,2.5-.24,2.63,2.54,5.16,5.19,7.76,7.76,1.62,1.6.97,2.82-.54,3.96Z"/>
      <path class="cls-1" d="m56.95,1.64c-3.5.69-9.84,7.02-10.6,10.59-1.22-1.01-1.46-2.05-.23-3.27,2.68-2.64,5.3-5.34,8-7.96,1.15-1.12,2.28-1.35,2.82.64Z"/>
      <path class="cls-1" d="m19.86,57.16c-.72-4.01-6.98-10.27-10.6-10.59.51-1.65,1.52-1.66,2.6-.64,2.87,2.71,5.72,5.44,8.51,8.24,1.1,1.1.46,2.13-.51,2.99Z"/>
      <path class="cls-1" d="m102.35,1.17c-5.3,2.06-8.78,5.96-11.07,11.05-.96-.88-1.5-1.9-.43-2.99,2.85-2.9,5.73-5.78,8.66-8.6,1.08-1.04,2.1-.75,2.83.54Z"/>
      <path class="cls-1" d="m35.38,91.04c-2.63-.6-3.93,1.37-5.46,2.86-2.19,2.13-4.36,4.29-6.54,6.44,1.6-4.76,6.01-7.04,9.24-10.34,1.17-1.19,1.97.31,2.76,1.04Z"/>
      <path class="cls-1" d="m121.61,109.49c3.11.23,4.41-2.39,6.31-4.03,1.64-1.41,3.21-2.91,4.81-4.37-1.84,3.94-5.53,6.22-8.38,9.24-1.15,1.22-2.05.19-2.75-.84Z"/>
      <path class="cls-1" d="m10.74,42.61c2.57-2.55,5.12-5.12,7.71-7.64.9-.87,1.53-1.74.96-3.04,1.57.52,1.72,1.59.65,2.58-3.03,2.78-5.35,6.39-9.32,8.1Z"/>
      <path class="cls-1" d="m203.1,11.63c2.92,1.66,4.71,4.53,7.15,6.71,1.19,1.06,2.25,2.21,4,2.16-.84,1.31-1.94,1.24-2.87.28-2.86-2.96-6.35-5.36-8.29-9.15Z"/>
      <path class="cls-1" d="m87.81,10.06c-2.26-2.2-4.52-4.39-6.77-6.6-1.1-1.08-1.96-2.62-3.93-1.82.27-1.75,1.46-1.91,2.42-.91,2.87,3,6.45,5.39,8.27,9.33Z"/>
      <path class="cls-1" d="m42.87,10.05c-2.48-2.39-5.04-4.7-7.42-7.19-1.08-1.13-2.16-1.84-3.73-1.69,1.07-1.44,2.2-1.11,3.23-.02,2.72,2.89,5.91,5.38,7.92,8.9Z"/>
      <path class="cls-1" d="m233.22,92.7c-.63,2.41-2.93,3.4-4.37,5.13-.95,1.15-2.75,1.8-2.27,3.81-1.92-.26-1.73-1.36-.75-2.36,2.3-2.36,4.22-5.18,7.38-6.58Z"/>
      <path class="cls-1" d="m256.56,24.9c-2.47,3.4-7.1,5.05-7.95,9.77-1.31-.24-1.92-1.12-.96-2.06,2.82-2.73,4.95-6.29,8.91-7.71Z"/>
      <path class="cls-1" d="m131.83,9.59c-2.26-2.3-4.53-4.58-6.76-6.9-.85-.88-1.65-1.71-3.01-1.05.38-1.07,1.1-2.04,2.12-.97,2.72,2.82,6.4,4.85,7.65,8.93Z"/>
      <path class="cls-1" d="m55.68,5.52c2.04,1.38,4.5,2.96,4.58,5.03.08,2.13-2.41,4.58-4.43,4.68-2.35.11-4.84-2.67-4.97-4.62-.14-2.15,2.84-3.61,4.82-5.09Z"/>
      <path class="cls-1" d="m100.64,15.78c-1.99-1.6-4.71-3.12-4.77-5.33-.05-2.02,2.59-4.46,4.57-4.59,2.37-.16,4.79,2.68,4.99,4.6.23,2.23-2.81,3.65-4.8,5.32Z"/>
      <path class="cls-1" d="m78.01,105.51c-1.64-1.85-3.32-3.47-4.61-5.35-.5-.73,4.4-5.18,5.23-4.68,1.99,1.18,4.58,2.74,4.34,4.98-.22,2.07-2.67,3.6-4.96,5.06Z"/>
      <path class="cls-1" d="m162.7,10.94c1.52-1.88,2.93-3.7,5.05-4.67.98-.45,5.51,3.64,5.12,4.67-.84,2.21-2.7,4.55-4.64,4.72-2.41.22-3.59-2.87-5.53-4.72Z"/>
      <path class="cls-1" d="m15.55,55.16c-1.24,2.17-2.8,3.83-4.82,4.95-.78.43-5.52-3.94-5.13-4.75,1.01-2.12,2.8-4.38,4.85-4.57,2.26-.21,3.38,2.71,5.11,4.37Z"/>
      <path class="cls-1" d="m38.24,100.43c-1.47,1.58-2.7,4.48-5.09,4.47-2.15,0-3.48-2.79-4.85-4.62-.48-.64,4.01-4.97,5.04-4.97.7,0,4.83,4.05,4.89,5.12Z"/>
      <path class="cls-1" d="m15.39,10.81c-1.13,1.86-2.64,3.62-4.7,4.76-.67.37-5.32-4.32-4.96-5.04,1.06-2.11,2.83-3.66,4.9-4.76.64-.34,4.74,3.97,4.76,5.04Z"/>
      <path class="cls-1" d="m195.46,10.92c-1.33,2.16-2.87,4.75-4.86,4.8-2.28.06-3.94-2.55-4.99-4.75-.43-.9,4.1-5.29,4.96-4.85,2.08,1.07,3.47,2.93,4.89,4.8Z"/>
      <path class="cls-1" d="m38.49,10.53c-1.99,1.89-3.14,4.75-5.46,4.61-2.18-.14-3.68-2.64-4.84-4.65-.41-.71,4.56-5.26,5.17-4.77,1.78,1.41,3.34,3.09,5.13,4.81Z"/>
      <path class="cls-1" d="m235.56,6.25c1.9,1.15,3.62,2.73,4.6,4.88.42.92-4.22,5.31-5.05,4.82-2-1.18-3.75-2.78-4.58-5.01-.31-.85,3.89-4.72,5.04-4.69Z"/>
      <path class="cls-1" d="m263.05,33.33c-1.51,2.34-2.97,4.86-5.14,4.98-2.49.14-4.81-2.55-4.97-4.69-.15-2.02,2.58-4.47,4.47-4.75,2.56-.37,3.41,3.1,5.64,4.46Z"/>
      <path class="cls-1" d="m10.23,27.96c2.34,1.42,4.83,3,4.74,5.12-.08,2.05-2.46,4.5-4.63,4.47-2.14-.03-4.73-2.52-4.82-4.38-.11-2.35,3.1-3.39,4.71-5.21Z"/>
      <path class="cls-1" d="m106.96,100.12c-3.06,1.99-3.97,5.46-6.69,4.67-1.88-.55-4.61-2.81-4.13-4.91.45-1.96,2.63-4.77,5.3-4.14,1.95.46,3.49,2.68,5.53,4.39Z"/>
      <path class="cls-1" d="m217.79,11.34c-1.33,1.7-2.67,4.4-4.79,4.43-2.4.03-3.82-2.76-5.18-4.75-.48-.7,4.07-4.74,5.16-4.67.85.05,4.8,4.02,4.81,4.99Z"/>
      <path class="cls-1" d="m262.92,55.73c-1.06,2.58-2.97,4.72-4.9,4.96-2.48.31-4.74-2.55-5.02-4.56-.28-2,2.44-4.39,4.45-4.68,2.62-.38,3.57,2.88,5.47,4.28Z"/>
      <path class="cls-1" d="m61,100.46c-1.66,1.67-2.94,4.54-5.11,4.4-2.22-.15-4.11-2.49-4.99-4.84-.36-.96,4.48-5.04,5.3-4.54,1.96,1.2,3.58,2.83,4.81,4.97Z"/>
      <path class="cls-1" d="m10.6,72.93c2.08,1.26,3.94,2.65,4.82,4.87.38.96-4.11,5.42-4.91,4.95-1.99-1.17-4.42-2.82-4.45-4.93-.04-2.19,2.62-3.53,4.55-4.89Z"/>
      <path class="cls-1" d="m145.52,5.76c2.14,1.17,3.75,2.85,4.9,4.87.44.77-4.03,5.58-4.81,5.15-2.18-1.17-4.73-2.95-4.78-5.19-.05-2.09,2.8-3.41,4.7-4.83Z"/>
      <path class="cls-1" d="m190.68,105.93c-1.89-1.71-4.63-3.17-4.73-5.42-.1-2.14,2.61-4.44,4.6-4.63,2.18-.22,4.58,2.44,4.82,4.37.31,2.44-2.67,3.79-4.69,5.69Z"/>
      <path class="cls-1" d="m257.8,95.91c2.23,1.06,4.57,2.73,4.79,4.71.28,2.46-2.53,4.8-4.56,4.94-2.25.15-4.71-2.57-4.91-4.74-.21-2.19,2.78-3.33,4.68-4.91Z"/>
      <path class="cls-1" d="m10.75,105.47c-2.1-1.53-4.76-3.2-4.88-5.29-.11-1.97,2.66-4.27,4.73-4.49,2.27-.24,4.53,2.39,4.75,4.33.28,2.49-2.66,3.76-4.6,5.45Z"/>
      <path class="cls-1" d="m78.06,15.68c-1.83-1.71-4.73-3.11-4.72-5.3,0-1.89,2.64-4.44,4.7-4.43,2.29,0,4.72,2.59,4.75,4.78.03,1.98-2.58,3.52-4.73,4.96Z"/>
      <path class="cls-1" d="m145.85,95.33c2.13,1.24,3.67,2.98,4.85,4.96.44.75-4.19,5.44-4.95,5.01-2.14-1.2-4.73-2.98-4.67-5.2.05-1.97,2.77-3.45,4.77-4.78Z"/>
      <path class="cls-1" d="m128.35,10.62c-1.53,2.05-3.07,4.74-5.06,4.77-2.31.03-4.04-2.59-5.18-4.82-.4-.79,4.41-5.18,5.23-4.75,2.09,1.09,3.46,3,5.01,4.8Z"/>
      <path class="cls-1" d="m212.99,105.95c-1.96-1.8-4.83-3.3-4.65-5.6.14-1.92,2.74-4.46,4.85-4.39,2.05.07,4.57,2.53,4.59,4.61.02,2.35-2.77,3.73-4.78,5.38Z"/>
      <path class="cls-1" d="m123.49,95.18c1.92,1.58,4.67,3.05,4.56,5.36-.1,2-2.58,4.57-4.61,4.57-2.33,0-4.77-2.81-4.92-4.8-.16-2.21,2.93-3.55,4.96-5.13Z"/>
      <path class="cls-1" d="m257.64,83.55c-2.07-1.57-4.85-3.02-4.75-5.35.09-2.01,2.65-3.65,4.77-4.6,1.01-.46,5.23,3.94,4.79,4.99-.91,2.19-2.81,3.54-4.82,4.96Z"/>
      <path class="cls-1" d="m168.04,105.67c-1.69-1.97-4.79-3.12-4.56-5.58.19-2.07,2.7-3.69,4.92-4.52.91-.34,5.15,4.49,4.66,5.22-1.27,1.9-2.82,3.6-5.02,4.88Z"/>
      <path class="cls-1" d="m240.7,100.79c-1.27,2.09-2.9,4.49-4.87,4.7-2.48.27-4.67-2.52-5.02-4.62-.37-2.23,2.33-4.5,4.36-4.74,2.56-.3,3.71,2.73,5.54,4.66Z"/>
      <path class="cls-1" d="m262.98,11.22c-1.3,2.1-2.83,4.57-4.9,4.74-2.48.2-4.69-2.61-4.96-4.64-.26-2,2.4-4.39,4.45-4.62,2.59-.3,3.66,2.8,5.41,4.52Z"/>
    </g>
  </g>
</svg>