<?xml version="1.0" encoding="UTF-8"?>
<svg id="Layer_2" data-name="Layer 2" xmlns="http://www.w3.org/2000/svg" viewBox="0 0 269.94 112.81">
  <defs>
    <style>
      .cls-1 {
        fill: #fff;
      }
    </style>
  </defs>
  <g id="Layer_1-2" data-name="Layer 1">
    <g>
      <path class="cls-1" d="m249.77,18.7c4.44-2.46,6.77-5.84,8.41-9.8.67-1.62,1.22-3.3,1.98-4.87.93-1.92,2.27-3.68,4.67-3.28,2.53.42,4.12,2.26,4.66,4.71.54,2.44-1.06,3.7-3.06,4.69-5.22,2.58-9.88,6-14.42,9.74,4.2-1.23,8.65-1.35,12.55-3.52,1.46-.81,3.02-1.36,4.41.12,1.11,1.19,1.1,2.7.78,4.15-.45,2.06-2.18,2.21-3.82,2.11-5.5-.31-10.94-2.24-16.53-.44-1.57.51-1.69-.81-1.36-1.86,1.31-4.21.75-8.38-.06-12.57-.19-.99-.17-2.06-.06-3.07.29-2.67,1.59-4.71,4.52-4.06,2.7.6,2.36,3.07,1.75,5.04-1.29,4.14-2.79,8.21-4.41,12.89Z"/>
      <path class="cls-1" d="m250.12,93.92c1.51,4.81,1.54,9.91,4.01,14.32.67,1.2.71,2.64-.3,3.71-1.15,1.21-2.73.86-4.14.59-1.6-.31-1.98-1.7-1.87-3.06.32-4.07.9-8.13,1.12-12.21.11-2.1-1.27-5.05-.31-6.14,1.25-1.42,3.9.75,6.08.56,2.76-.24,5.56.05,8.26-.82,1.27-.41,2.58-.66,3.86-.09,2.1.92,3.45,2.5,2.76,4.83-.72,2.42-2.78,2.29-4.71,1.64-3.99-1.35-7.94-2.81-12.87-4.56,1.97,4.41,4.99,6.2,8.15,7.78,1.83.91,3.76,1.63,5.65,2.42,2.15.9,4.03,2.23,3.73,4.79-.29,2.47-1.85,4.4-4.38,4.94-2.7.57-3.91-1.45-4.89-3.51-2.64-5.55-6.32-10.4-10.14-15.17Z"/>
      <path class="cls-1" d="m20.23,93.84c-5.84,3.35-8.22,8.31-10.22,13.58-.83,2.19-1.67,4.6-4.67,4.49-2.41-.09-4.26-1.37-4.94-3.69-.71-2.43.3-4.18,2.69-5.29,5.57-2.59,10.44-6.26,15.26-10.17-4.34,1.15-8.84,1.48-12.9,3.5-1.46.73-2.99,1.6-4.48.25-1.4-1.27-.95-3.08-.6-4.56.52-2.19,2.56-1.52,4.06-1.52,5.21.02,10.37,2.07,15.67.21,1.66-.58,1.79.6,1.42,2.08-1.09,4.36-.58,8.74.34,13.06.29,1.36.2,2.6-.3,3.86-.77,1.94-2.23,2.73-4.19,2.29-2.31-.52-2.49-2.39-1.93-4.17,1.41-4.45,3.03-8.83,4.8-13.92Z"/>
      <path class="cls-1" d="m18.12,18.25c-3.96-4.25-9.01-6.37-14.22-8.39C-.76,8.06-1.11,4.12,2.78,1.17c2.21-1.68,4.36-1.41,5.6.88,2.99,5.52,6.35,10.78,9.75,16.2Z"/>
      <path class="cls-1" d="m248.66,73.11c4.5-.57,8.55-2.01,12.64-3.51,2.38-.87,5.13-1.93,7.46.24.86.8,1.16,2.13.3,3.21-1.83,2.28-4.44,1.95-6.89,1.7-4.51-.45-9.01-1.09-13.51-1.64Z"/>
      <path class="cls-1" d="m248.36,34.35c5.26-.98,10.41-1.8,15.38-3.54,1.96-.69,3.76-.1,5.22,1.39.82.83.95,1.79.3,2.8-1.21,1.88-3.19,2.33-5.04,1.85-5.2-1.34-10.45-2.19-15.87-2.49Z"/>
      <path class="cls-1" d="m197.55,91.58c.49,4.33,1.86,8.24,3.35,12.18.97,2.57,1.93,5.38-.22,7.92-.72.86-1.81,1.04-2.79.36-2.66-1.84-2.18-4.67-1.96-7.23.38-4.42,1.07-8.82,1.63-13.22Z"/>
      <path class="cls-1" d="m248.55,62.75c5.7-1.4,11.49-1.05,17.15-2.19,2.21-.44,4.14.78,3.88,3.47-.25,2.6-2.2,3.46-4.45,2.91-2.81-.68-5.48-1.96-8.29-2.69-2.71-.7-5.52-1.02-8.29-1.5Z"/>
      <path class="cls-1" d="m242.42,92.66c.83,4.5,2.52,8.66,4,12.89.34.95.61,2,.59,2.99-.04,1.88-.76,3.63-2.82,3.91-2.27.3-3.12-1.54-3.3-3.33-.21-2.17-.24-4.44.2-6.55.68-3.26.91-6.56,1.32-9.9Z"/>
      <path class="cls-1" d="m123.61,90.91c.63,5.11,1.84,9.97,3.47,14.75.36,1.05.23,2.32.14,3.47-.13,1.59-.93,2.79-2.65,3-1.6.19-2.41-.86-2.88-2.17-.34-.94-.89-2.04-.68-2.91,1.3-5.29,2.3-10.62,2.6-16.15Z"/>
      <path class="cls-1" d="m220.02,91.9c.52,4.52,2.23,8.66,3.63,12.9.77,2.34,1.38,4.88-.64,6.99-.74.78-1.88,1-2.81.3-2.29-1.73-2.34-4.23-2.01-6.75.58-4.47,1.71-8.87,1.83-13.44Z"/>
      <path class="cls-1" d="m20.5,62.06c-4.28.78-8.19,2.23-12.12,3.73-2.44.93-5.13,1.6-7.44-.49-.85-.77-.89-1.9-.2-2.8,1.77-2.28,4.35-2.14,6.82-1.92,4.3.39,8.46,1.93,12.93,1.48Z"/>
      <path class="cls-1" d="m248.2,40.1c5.78-.83,11.43-.98,17.03-1.85,1.6-.25,3.22.02,4.09,1.8.6,1.23.23,2.34-.49,3.27-1.11,1.43-2.79,1.79-4.36,1.16-5.25-2.13-10.56-3.93-16.27-4.38Z"/>
      <path class="cls-1" d="m117.8,20.65c-.59-4.17-2.28-7.93-3.64-11.8-.87-2.45-1.72-5.11.14-7.53.77-1,2.12-1.32,3.14-.47,2.36,1.93,2.11,4.67,1.78,7.29-.54,4.15-1.38,8.27-1.41,12.51Z"/>
      <path class="cls-1" d="m33.98,21.17c-.4-4.02-1.6-7.73-2.69-11.46-.33-1.12-.85-2.21-.98-3.35-.23-2.01-.55-4.15,1.32-5.67.88-.72,2.06-.66,2.86.02,1.83,1.56,2.46,3.77,1.76,5.95-1.51,4.74-1.97,9.6-2.27,14.51Z"/>
      <path class="cls-1" d="m248.75,50.24c4.55-.81,8.94-1.68,13.12-3.43.4-.17.83-.29,1.26-.36,2.01-.33,4.11-.93,5.72.95.69.81,1.11,1.81.38,2.81-1.47,2-3.57,2.45-5.85,2.03-4.84-.9-9.69-1.61-14.63-2Z"/>
      <path class="cls-1" d="m107.5,91.12c.56,4.42,1.88,8.46,3.47,12.48.74,1.86,1.17,3.92.69,6-.34,1.46-1.19,2.34-2.7,2.39-1.37.05-2.16-.86-2.54-2.02-.31-.95-.45-1.99-.48-3-.14-5.33,1.63-10.46,1.57-15.85Z"/>
      <path class="cls-1" d="m163.19,91c.6,5.49,1.26,10.97,1.79,16.46.17,1.75.17,3.58-1.75,4.6-1.22.65-2.32.27-3.25-.5-1.6-1.33-1.53-3.23-.95-4.87,1.79-5.08,4.01-10.03,4.17-15.7Z"/>
      <path class="cls-1" d="m213.85,91.31c.35,4.98,1.51,9.72,3.14,14.36.09.27.13.57.14.86.05,1.87.42,3.85-1.3,5.27-.87.72-1.89.88-2.84.25-1.96-1.31-2.41-3.47-1.94-5.43,1.21-5.04,2.1-10.13,2.8-15.31Z"/>
      <path class="cls-1" d="m72.68,20.61c-.39-4.59-2.6-8.49-3.79-12.66-.69-2.41-1.47-4.88.71-6.96.8-.76,1.94-.84,2.83-.15,2.16,1.67,1.96,4.1,1.82,6.44-.27,4.46-2.06,8.73-1.58,13.33Z"/>
      <path class="cls-1" d="m185.05,20.65c-.1-3.76-1.69-7.05-2.8-10.46-.41-1.24-.95-2.46-1.16-3.74-.38-2.34-.7-5.3,2.32-5.66,3.36-.4,3.69,2.79,3.7,5.22.02,4.94-2.29,9.59-2.05,14.64Z"/>
      <path class="cls-1" d="m145.95,90.37c1.21,5.27,2.17,9.44,3.14,13.6.23.99.61,1.95.83,2.95.41,1.87-.21,3.46-1.51,4.78-.82.83-1.79.95-2.76.25-1.6-1.14-2.27-2.86-1.84-4.62,1.29-5.23,2.25-10.49,2.14-16.96Z"/>
      <path class="cls-1" d="m248.69,79.53c5.06-.82,9.97-1.95,14.75-3.68,2.05-.74,4.07-.31,5.63,1.3.77.79.8,1.89.21,2.85-1.3,2.09-3.43,2.2-5.45,1.82-5-.94-9.98-1.94-15.14-2.28Z"/>
      <path class="cls-1" d="m101.31,90.49c.42,5.57,1.76,10.13,3.08,14.7.32,1.09.52,2.31.39,3.42-.19,1.59-.62,3.3-2.73,3.37-2.01.06-2.81-1.37-3.1-3.05-.2-1.13-.22-2.33-.05-3.47.7-4.72,1.51-9.43,2.42-14.98Z"/>
      <path class="cls-1" d="m95.58,91.41c.57,5.81,1.18,11.63,1.68,17.45.14,1.64-.74,2.76-2.49,3.01-1.97.28-3.01-.89-3.57-2.51-.51-1.44-.04-2.83.53-4.22,1.8-4.38,3.74-8.74,3.86-13.73Z"/>
      <path class="cls-1" d="m248.87,27.71c4.68-.47,9.11-1.85,13.48-3.48,1.08-.4,2.26-.69,3.4-.71,1.98-.03,3.53.98,3.7,3.01.16,1.94-1.49,2.84-3.11,3.12-1.56.27-3.25.25-4.81-.03-4.17-.73-8.29-1.75-12.67-1.92Z"/>
      <path class="cls-1" d="m85.17,91.49c.25,4.32,1.82,8.23,3.33,12.15.16.41.32.82.41,1.25.45,2.16.96,4.36-.67,6.26-.75.87-1.9,1.02-2.81.45-2.32-1.47-2.3-3.89-2.18-6.25.23-4.66,1.86-9.12,1.93-13.86Z"/>
      <path class="cls-1" d="m235.73,91.97c1.39,5.17,2.42,9.41,3.71,13.57.51,1.63.76,3.09.08,4.66-.54,1.26-1.16,2.4-2.8,2.34-1.59-.06-2.32-1.16-2.75-2.45-.63-1.86-.56-3.81.03-5.63,1.23-3.81,1.69-7.7,1.73-12.5Z"/>
      <path class="cls-1" d="m248.6,56.64c4.93-.7,9.67-1.44,14.22-3.1.27-.1.57-.13.86-.16,2.06-.18,4.18-.44,5.61,1.54.69.95.49,2.03-.24,2.85-1.62,1.81-3.6,2.37-5.94,1.43-4.68-1.87-9.75-1.51-14.51-2.56Z"/>
      <path class="cls-1" d="m21.24,33.43c-4.92.58-9.56,1.63-14.14,3.21-2.03.7-4.4.89-6.24-.86-.84-.8-.88-1.96-.19-2.82,1.67-2.1,4.04-2.29,6.4-1.71,4.66,1.14,9.39,1.7,14.17,2.17Z"/>
      <path class="cls-1" d="m78.63,91.25c.25,4.44,1.73,8.58,2.94,12.77.12.42.36.81.45,1.24.47,2.21.64,4.43-1.16,6.17-.8.78-2.01.79-2.86.11-1.94-1.54-2.25-3.77-1.73-5.99,1.11-4.69,2.14-9.37,2.36-14.31Z"/>
      <path class="cls-1" d="m130.09,91.34c.5,4.74,2.25,9.03,3.74,13.41.72,2.13,1.28,4.63-.64,6.62-.73.76-1.86,1.16-2.79.42-2.15-1.71-2.67-4.1-2.21-6.68.81-4.55,1.82-9.07,1.91-13.78Z"/>
      <path class="cls-1" d="m79.15,20.87c-.78-4.74-2.17-9.31-3.51-13.88-.46-1.58-.73-3.12,0-4.7.52-1.14,1.2-2.04,2.59-1.97,1.1.06,1.86.63,2.41,1.63.97,1.8,1.04,3.7.52,5.54-1.24,4.37-1.74,8.83-2,13.37Z"/>
      <path class="cls-1" d="m152.95,91.95c.56,4.2,1.61,8.24,3.22,12.14.17.4.33.81.45,1.24.6,2.15,1.11,4.33-.75,6.14-.73.71-1.65,1.33-2.74.62-2.14-1.39-2.36-3.57-2.2-5.82.35-4.79,2.31-9.36,2.03-14.32Z"/>
      <path class="cls-1" d="m185.5,91.84c.67,5.08.84,10.16,1.81,15.16.35,1.8.47,3.88-1.62,5.07-1.17.66-2.26.53-3.19-.44-1.59-1.68-1.67-3.56-.93-5.7,1.59-4.6,4.16-8.93,3.93-14.09Z"/>
      <path class="cls-1" d="m190.99,91.47c.61,4.78,1.93,9.36,3.39,13.91.31.95.59,2.01.48,2.97-.2,1.71-.37,3.8-2.64,3.96-2.44.17-3.04-1.79-3.42-3.76-.56-2.86.93-5.42,1.16-8.17.25-2.98.68-5.94,1.03-8.91Z"/>
      <path class="cls-1" d="m191.9,21.91c-1.22-5.3-1.92-9.91-3.68-14.24-.06-.14-.11-.27-.14-.42-.43-2.21-.66-4.41,1.18-6.15.84-.79,2-.81,2.84-.14,2.08,1.65,2.55,4,1.78,6.35-1.47,4.5-1.62,9.15-2,14.59Z"/>
      <path class="cls-1" d="m101.52,21.16c-.58-4.61-1.67-9.08-3.15-13.48-.76-2.25-1.13-4.64.71-6.63.92-1,2.32-.93,3.21-.11,2.04,1.89,2.08,4.24,1.37,6.86-1.19,4.33-1.84,8.78-2.13,13.37Z"/>
      <path class="cls-1" d="m117.75,91.48c.95,5.08.83,10.19,2.18,15.13.49,1.81.45,3.85-1.52,5.06-1.08.66-2.35.6-3.3-.16-1.84-1.49-1.88-3.56-1.18-5.59,1.65-4.71,4.4-9.09,3.82-14.45Z"/>
      <path class="cls-1" d="m140.03,20.67c-.02-4.73-2.49-8.7-3.57-13.04-.56-2.26-1.16-4.63.76-6.57.78-.79,2-.84,2.82-.14,1.99,1.67,2.16,4.07,1.91,6.39-.49,4.46-1.66,8.83-1.93,13.35Z"/>
      <path class="cls-1" d="m230.32,92.11c.92,5.01.92,9.96,1.83,14.83.33,1.77.61,3.89-1.34,5.19-1.09.72-2.29.63-3.23-.25-1.85-1.73-1.76-3.8-.98-6.05,1.56-4.48,4.01-8.73,3.72-13.72Z"/>
      <path class="cls-1" d="m248.96,85.15c5.42-.71,10.77-1.02,16.06-1.9,1.55-.25,3.25-.3,4.15,1.58.65,1.35.54,2.57-.52,3.61-1.38,1.36-3.09,1.69-4.86.96-4.78-1.98-9.47-4.23-14.84-4.25Z"/>
      <path class="cls-1" d="m229.97,21.53c-.19-4.65-2.05-8.76-3.48-12.99-.8-2.36-1.38-4.84.49-7.03.71-.83,1.81-1.14,2.75-.42,2.26,1.72,2.36,4.25,2.08,6.74-.52,4.56-1.61,9.03-1.84,13.69Z"/>
      <path class="cls-1" d="m175.42,91.95c.35,4.57,2.08,8.63,3.43,12.8.76,2.34,1.54,4.83-.67,6.9-.79.74-1.76,1.05-2.76.29-2.19-1.67-1.96-4.07-1.81-6.39.3-4.56,1.98-8.91,1.82-13.6Z"/>
      <path class="cls-1" d="m20.8,55.65c-4.99,1.16-9.95,2.11-14.72,3.87-1.83.67-3.81.15-5.28-1.3-.82-.81-.78-1.99-.15-2.85,1.24-1.69,3.16-2.28,5.09-1.89,4.97,1.01,9.91,2.11,15.07,2.17Z"/>
      <path class="cls-1" d="m20.74,50.15c-5.41.74-10.76.89-16.04,1.98-2,.42-4.39-.03-4.41-2.9-.02-3,2.34-3.57,4.61-3.31,1.83.22,3.57,1.2,5.34,1.85,3.39,1.24,6.82,2.27,10.5,2.37Z"/>
      <path class="cls-1" d="m140.74,91.08c.57,5.33.51,10.59,1.56,15.76.37,1.84.43,3.85-1.52,5.1-1.14.73-2.3.49-3.24-.32-1.81-1.57-1.8-3.56-.94-5.6,2.02-4.82,3.7-9.72,4.14-14.94Z"/>
      <path class="cls-1" d="m21.33,72.71c-5.58.65-11.15,1.38-16.74,1.93-2.18.22-4.34-.31-4.24-3.1.1-2.66,2.24-3.23,4.41-3.03,1.41.13,2.85.63,4.15,1.23,3.89,1.8,7.95,2.57,12.41,2.97Z"/>
      <path class="cls-1" d="m213.92,21.56c-.13-4.79-1.75-9.19-3.11-13.63-.72-2.34-.94-4.66.78-6.63.88-1.01,2.15-.91,3.15-.04,2.05,1.78,2.02,4.19,1.43,6.5-1.14,4.54-1.61,9.15-2.26,13.81Z"/>
      <path class="cls-1" d="m146.83,21.16c-.58-4.56-1.97-8.99-3.38-13.41-.74-2.32-.96-4.68.76-6.65.86-.99,2.32-.95,3.19-.06,1.76,1.82,2.13,4.11,1.37,6.54-1.35,4.38-1.48,8.92-1.95,13.58Z"/>
      <path class="cls-1" d="m124.12,20.83c-.64-4.48-1.88-8.8-3.25-13.1-.31-.96-.72-2-.64-2.96.16-1.85.2-4.12,2.79-4.26,2.46-.13,3.12,1.84,3.4,3.8.14.99.12,2.09-.17,3.04-1.34,4.38-1.69,8.88-2.13,13.48Z"/>
      <path class="cls-1" d="m107.42,20.82c-1.01-5.12-.92-10.24-2.14-15.23-.42-1.72-.34-3.57,1.42-4.71,1.06-.69,2.23-.7,3.28.09,1.8,1.37,1.88,3.37,1.25,5.18-1.66,4.8-3.98,9.4-3.81,14.67Z"/>
      <path class="cls-1" d="m27.26,20.56c-.31-4.39-1.95-8.3-3.32-12.28-.86-2.49-1.63-5.12.54-7.38.77-.8,2.02-.83,2.83-.09,2.16,1.99,2.34,4.61,1.79,7.28-.86,4.14-1.57,8.29-1.83,12.48Z"/>
      <path class="cls-1" d="m72.76,91.03c.79,5.47,1.16,10.96,2.11,16.41.36,2.04-.16,4.42-3,4.39-3-.04-3.47-2.41-3.14-4.7.26-1.85.99-3.68,1.78-5.39,1.55-3.39,2.27-6.9,2.25-10.7Z"/>
      <path class="cls-1" d="m55.98,91.9c.53,4.1,1.86,7.95,2.97,11.86.24.84.63,1.64.86,2.48.56,2.01-.14,3.78-1.46,5.21-.74.81-1.96.7-2.85.09-1.61-1.09-2.15-2.94-1.97-4.63.35-3.17,1.19-6.29,1.75-9.44.32-1.84.47-3.71.7-5.57Z"/>
      <path class="cls-1" d="m20.32,17.24c-2.22-4.46-2.77-9.45-4.96-13.9-.72-1.46.29-2.93,2.04-3.21,1.96-.31,3.9-.23,4.5,2.27.46,1.9.14,3.75-.29,5.63-.67,2.98-1,6.02-1.3,9.21Z"/>
      <path class="cls-1" d="m242.19,21.36c-.68-5.3-1.38-10.6-2.03-15.91-.2-1.65-.08-3.28,1.56-4.27,1.12-.67,2.24-.61,3.25.28,1.48,1.31,1.89,3,1.32,4.8-.81,2.5-1.79,4.95-2.75,7.4-.97,2.48-1.01,5.11-1.34,7.7Z"/>
      <path class="cls-1" d="m168.88,91.8c.85,4.7,1.85,9.34,3.18,13.91.35,1.21.25,2.61.08,3.88-.19,1.34-.93,2.55-2.43,2.72-1.76.2-2.53-1.02-3.09-2.5-.48-1.29-.5-2.53-.12-3.84,1.34-4.62,2.02-9.35,2.38-14.18Z"/>
      <path class="cls-1" d="m20.93,78.68c-4.88.27-8.91,1.47-12.93,2.69-2.42.73-4.88,1.24-7.03-.57-1.01-.85-.99-2.26-.14-3.17,1.89-2.03,4.28-1.96,6.85-1.4,4.1.89,8.25,1.54,13.26,2.45Z"/>
      <path class="cls-1" d="m207.76,92.02c.92,4.97.81,9.94,2.08,14.77.5,1.9.15,3.8-1.58,5.13-1.07.82-2.19.69-3.22-.11-1.78-1.39-1.77-3.38-1.22-5.2,1.45-4.83,4.4-9.25,3.93-14.59Z"/>
      <path class="cls-1" d="m235.97,17.62c-1.03-3.9-2.27-7.76-3.02-11.71-.4-2.09-.38-4.93,2.62-5.08,2.89-.15,3.47,2.71,3.3,4.76-.32,4.01-1.29,7.96-1.99,11.94-.3.03-.6.05-.9.08Z"/>
      <path class="cls-1" d="m208.04,20.68c-1.31-3.94-2.53-7.63-3.78-11.32-.62-1.82-.96-3.69-.8-5.61.13-1.59.8-2.86,2.62-2.99,1.63-.11,2.35,1.07,2.78,2.35.77,2.29.62,4.7.18,6.97-.66,3.44-1.05,6.89-1,10.59Z"/>
      <path class="cls-1" d="m197.38,21.26c-.79-5.6-1.11-11.2-2.17-16.73-.38-2,.64-3.85,3.07-3.9,2.46-.05,3.24,1.76,3.23,3.81,0,1.26-.42,2.58-.9,3.77-1.69,4.18-3.24,8.39-3.23,13.04Z"/>
      <path class="cls-1" d="m20.21,27.66c-4.74.66-9.48,1.39-14.23,1.95-1.97.23-4.21.69-5.4-1.69-.57-1.14-.44-2.31.51-3.23,1.7-1.66,3.67-1.5,5.7-.75,4.35,1.61,8.54,3.85,13.42,3.72Z"/>
      <path class="cls-1" d="m168.97,21.22c-.26-4.57-1.61-8.24-2.56-12-.36-1.41-.84-2.82-.91-4.25-.1-1.9.03-4.09,2.51-4.38,2.83-.33,3.23,2.05,3.52,4.06.34,2.35-.68,4.57-1.08,6.85-.53,3-.92,6.03-1.47,9.72Z"/>
      <path class="cls-1" d="m152.39,20.59c-.73-4.92-.93-9.86-2.01-14.7-.42-1.88-.42-3.89,1.56-5.04,1.04-.61,2.35-.6,3.27.28,1.51,1.45,1.76,3.31,1.1,5.24-1.57,4.64-4.11,9.01-3.93,14.21Z"/>
      <path class="cls-1" d="m95.09,20.47c-.19-4.38-2.29-8.16-3.51-12.17-.73-2.4-1.52-4.86.33-7.08.84-1.01,2.23-1.18,3.17-.27,1.95,1.87,2.22,4.3,1.8,6.9-.67,4.18-1.92,8.29-1.78,12.63Z"/>
      <path class="cls-1" d="m62.17,20.72c-.64-5.01-1.34-10.01-1.89-15.03-.2-1.81-.71-3.9,1.5-5.02,1.12-.57,2.34-.54,3.26.37,1.64,1.63,1.71,3.6.92,5.66-1.71,4.46-3.98,8.78-3.79,14.01Z"/>
      <path class="cls-1" d="m56.14,22.05c-.29-5.73-1.45-10.04-2.87-14.29-.32-.95-.44-2.01-.45-3.02,0-1.9-.09-4.13,2.48-4.39,2.88-.29,3.4,2.18,3.35,4.13-.08,3.02-.79,6.02-1.23,9.03-.36,2.43-.73,4.86-1.28,8.53Z"/>
      <path class="cls-1" d="m33.2,91.53c.89,4.61,1.98,9.1,3.58,13.45.2.54.49,1.12.45,1.67-.12,2.12.29,4.92-2.69,5.14-3.25.24-3.79-2.61-3.43-4.9.82-5.09,2.22-10.09,2.09-15.35Z"/>
      <path class="cls-1" d="m174.83,20.82c-.64-5.26-1.36-10.52-1.88-15.8-.22-2.25-.04-4.81,3.22-4.37,2.77.38,3.28,2.74,2.8,5.03-.41,1.97-1.36,3.82-2.11,5.71-1.2,3.02-1.39,6.21-2.03,9.43Z"/>
      <path class="cls-1" d="m62.3,92.72c1.13,3.43,2.27,6.85,3.38,10.28.4,1.24.92,2.49,1.06,3.77.23,2.25.2,4.82-2.79,4.97-2.75.14-2.94-2.38-3.14-4.4-.49-5,1.96-9.74,1.5-14.63Z"/>
      <path class="cls-1" d="m40.6,95.29c1.19,3.85,2.55,7.67,3.49,11.58.48,1.97.3,4.43-2.35,4.86-2.83.46-3.26-2.07-3.53-4.01-.6-4.23,1.08-8.22,2.39-12.43Z"/>
      <path class="cls-1" d="m219.86,20.21c-.7-4.91-1.46-9.81-2.06-14.73-.21-1.72-.33-3.62,1.76-4.52,1.01-.43,2.01-.42,2.88.34,1.63,1.41,2.07,3.21,1.36,5.18-1.62,4.48-3.9,8.76-3.94,13.74Z"/>
      <path class="cls-1" d="m50.03,20.8c-.52-4.26-2.21-8.12-3.48-12.11-.78-2.46-1.54-5.12.2-7.54.66-.91,1.9-1.04,2.79-.47,2.75,1.74,2.05,4.59,1.94,7.12-.19,4.33-1.37,8.57-1.46,13Z"/>
      <path class="cls-1" d="m17.24,20c-4.07.9-7.88,1.38-11.68,2.06-1.18.21-2.62-.23-3.76-.75C.04,20.51-.05,18.78.31,17.16c.37-1.66,1.93-1.93,3.14-1.58,4.63,1.35,9.2,2.93,13.79,4.42Z"/>
      <path class="cls-1" d="m20.63,39.68c-4.64.82-8.96,2.45-13.35,3.92-2.01.67-4.39.97-6.29-.66-.86-.74-1.02-1.89-.37-2.81,1.48-2.08,3.9-2.05,6.01-1.96,4.66.21,9.21,1.66,13.99,1.5Z"/>
      <path class="cls-1" d="m162.84,20.16c-.64-3.67-2.23-6.98-3.27-10.44-.88-2.91-2.17-5.91.28-8.7.63-.72,1.72-.73,2.44-.21,3.06,2.23,2.27,5.53,1.89,8.47-.47,3.62-1.07,7.21-1.33,10.87Z"/>
      <path class="cls-1" d="m39.52,20.81c-.58-4.93-1.19-9.85-1.72-14.78-.21-1.99-.94-4.22,1.49-5.45,1.13-.58,2.37-.37,3.29.47,1.93,1.77,1.66,3.9.75,6.07-1.86,4.45-3.92,8.84-3.82,13.7Z"/>
      <path class="cls-1" d="m20.12,84.75c-4.21.61-7.95,2.23-11.8,3.51-2.45.81-5.1,1.58-7.38-.56-.69-.65-.88-1.64-.38-2.42,1.73-2.69,4.53-2.25,7.1-2.1,4.2.26,8.28,1.58,12.46,1.57Z"/>
      <path class="cls-1" d="m84.76,21.28c-.81-5.59-1.12-11.23-1.95-16.82-.33-2.23.5-4.36,3.33-3.95,2.53.36,3.19,2.49,2.76,4.68-.36,1.85-1.19,3.61-1.91,5.37-1.39,3.41-2.07,6.94-2.23,10.72Z"/>
      <path class="cls-1" d="m27.81,91.56c.55,5.06.59,10.14,1.75,15.11.42,1.79.51,3.92-1.65,4.97-1.11.54-2.32.42-3.22-.56-1.42-1.54-1.65-3.23-.9-5.24,1.72-4.63,4.38-9.02,4.03-14.27Z"/>
      <path class="cls-1" d="m50.67,95.25c.55,4.17,1.18,8.33,1.61,12.52.23,2.26-.43,4.32-3.27,4.06-2.66-.25-3.41-2.47-2.9-4.55.79-3.25,2.19-6.35,3.27-9.53.28-.81.36-1.69.54-2.53.25.01.5.03.74.04Z"/>
      <path class="cls-1" d="m129.46,16.8c-.56-3.88-1.2-7.74-1.64-11.63-.19-1.72-.24-3.64,1.84-4.5,1.18-.49,2.31-.27,3.23.66,1.38,1.41,1.65,3.1.95,4.87-1.39,3.52-2.96,6.97-4.39,10.6Z"/>
    </g>
  </g>
</svg>