<?xml version="1.0" encoding="UTF-8"?>
<svg id="Layer_2" data-name="Layer 2" xmlns="http://www.w3.org/2000/svg" viewBox="0 0 277.27 142.84">
  <defs>
    <style>
      .cls-1 {
        fill: #fff;
      }
    </style>
  </defs>
  <g id="Layer_1-2" data-name="Layer 1">
    <g>
      <path class="cls-1" d="m254.83,136.08c-1.91-1.5-.57-2.62-.23-3.76.24-.8,1.05-1.64.25-2.38-.89-.82-2.04-.41-2.84.21-2.43,1.87-4.77,3.86-7.13,5.83-2.69,2.24-5.14,4.81-8.45,6.2-2.11.88-4.32.72-6.49.42-1.32-.18-2.82-.73-3.22-1.99-.48-1.51,1.42-1.52,2.2-2.25,2.98-2.81,6-5.57,9.02-8.34,2.51-2.3,5.36-4.1,8.58-5.2,3.37-1.15,6.8-.6,8.66,2.37,1.63,2.6,1.41,5.87-.34,8.9Z"/>
      <path class="cls-1" d="m263.42,21.19c0,4.74,2.99,7.3,5.48,10.13,2.41,2.75,4.99,5.33,6.86,8.53,1.41,2.42,1.73,4.97,1.27,7.62-.25,1.44-.9,3.13-2.27,3.56-1.78.55-1.52-1.69-2.35-2.55-2.75-2.83-5.42-5.75-8.13-8.62-2.35-2.49-4.11-5.36-5.18-8.57-1.5-4.47-.23-7.56,4.33-10.11Z"/>
      <path class="cls-1" d="m186.53,142.74c-.28-.06-1.62-.18-2.79-.67-2.27-.96-2.97-1.74-.25-3.62,3.57-2.47,6.61-5.71,9.84-8.66,2.64-2.41,5.69-4.07,9.11-5.05,2.93-.84,5.51-.09,7.65,2,.8.78,1.75,2.13-.2,2.55-5.24,1.14-8.17,5.41-11.99,8.46-3.08,2.47-5.97,5.26-11.37,4.99Z"/>
      <path class="cls-1" d="m230.36,3.02c-4.76,2.7-8,6.9-11.99,10.26-2.82,2.38-5.77,4.56-9.48,5.23-2.65.48-5.32.47-7.29-1.81-.95-1.1-1.46-2.41.64-2.91,4.09-.99,6.56-4.23,9.5-6.79,2.43-2.11,4.71-4.44,7.67-5.78,3.86-1.74,7.59-1.99,10.94,1.8Z"/>
      <path class="cls-1" d="m.23,97.33c.12-.57.2-1.78.65-2.82.84-1.97,1.6-3.56,3.73-.63,2.49,3.41,5.57,6.39,8.41,9.54,2.38,2.65,4.2,5.63,5.3,9.03.81,2.51.65,4.91-.99,7.09-.62.82-1.29,1.84-2.36,1.81-1.51-.04-.91-1.54-1.27-2.39-1.51-3.61-4.45-6.12-6.94-8.97-3.08-3.52-6.54-6.84-6.53-12.65Z"/>
      <path class="cls-1" d="m97.3,142.73c-.64-.17-1.95-.36-3.14-.85-2.12-.88-2.73-1.74-.37-3.52,3.36-2.54,6.35-5.56,9.48-8.41,2.75-2.5,5.85-4.32,9.45-5.32,2.25-.62,4.33-.37,6.29.89,1,.64,2.11,1.36,2.02,2.65-.1,1.4-1.57.95-2.44,1.32-3.57,1.54-6.09,4.44-8.99,6.87-3.44,2.89-6.61,6.32-12.29,6.38Z"/>
      <path class="cls-1" d="m18.52,70.24c-.09,1.84-.29,3.27-1.19,4.52-.69.96-1.35,2.11-2.65,2.02-1.54-.11-.8-1.6-1.11-2.45-1.15-3.13-3.73-5.19-5.73-7.67-2.01-2.5-4.17-4.88-6.08-7.46-1.84-2.49-2.07-5.4-1.42-8.38.29-1.33.86-2.72,2.15-3.11,1.55-.47,1.56,1.38,2.28,2.16,2.77,3,5.56,6,8.25,9.08,2.92,3.35,5.19,7.05,5.5,11.29Z"/>
      <path class="cls-1" d="m185.49,3.1c-4.81,2.73-7.96,6.83-11.8,10.17-2.81,2.45-5.9,4.28-9.48,5.23-2.51.67-4.95.48-7.03-1.26-.76-.63-1.75-1.31-1.54-2.48.22-1.17,1.4-.74,2.16-.96,2.48-.71,4.25-2.45,6.14-4.06,3-2.55,5.92-5.23,9.15-7.45,4.28-2.95,8.08-2.63,12.4.8Z"/>
      <path class="cls-1" d="m277.27,90.24c-.04,1.34-.18,2.61-.86,3.82-1.09,1.93-1.72,2.73-3.52.24-2.55-3.53-5.84-6.51-8.71-9.82-2.71-3.12-4.99-6.52-5.47-10.78-.27-2.45.28-4.69,2.34-6.29,1.01-.79,2.37-1.21,2.69.52.96,5.18,5.29,7.89,8.26,11.57,2.6,3.22,5.31,6.27,5.27,10.73Z"/>
      <path class="cls-1" d="m140.76,3.15c-4.96,2.79-8.08,6.94-12,10.19-2.83,2.34-5.73,4.48-9.45,5.27-2.11.45-4.05.23-5.95-.68-1.23-.58-2.48-1.43-2.51-2.8-.04-1.87,1.79-.83,2.71-1.26,2.85-1.32,5.02-3.48,7.29-5.53,2.49-2.25,4.83-4.71,7.79-6.34,4.04-2.23,8.01-2.45,12.12,1.15Z"/>
      <path class="cls-1" d="m142.88,142.75c-1.63.01-3.25-.09-4.62-1.09-.95-.69-2.02-1.29-.44-2.61,4.36-3.64,8.49-7.58,12.97-11.07,3.12-2.43,6.69-4.36,10.93-3.36,1.87.44,3.95,1.36,4.19,3.4.27,2.28-2.21,1.02-3.3,1.74-2.94,1.95-5.5,4.32-8.14,6.63-3.39,2.95-6.59,6.33-11.6,6.36Z"/>
      <path class="cls-1" d="m271.1,127.51c-.94-2.07-2.26-2.48-3.34-3.2-1.09-.72-2.3-1.34-3.24-2.23-2.47-2.34-4.54-5.32-2.38-8.49,2.07-3.03,5.56-2.55,8.92-1.45-1.53,2.17-3.51-.1-5.07,1,1.07,2.09,3.37,2.67,4.92,4.14,2.76,2.62,3.81,5.45,2,9.01-.26.5-.76,1.03-.72,1.51.1,1.22,3.08,1.72,1.09,3.44-3.37,2.92-5.23,7.62-10.13,8.73-2.13.48-4.3.23-5.56-1.64-1.49-2.23,1.36-2.38,2.19-3.43,2.85-3.61,5.4-7.8,11.31-7.39Z"/>
      <path class="cls-1" d="m51.98,142.6c.09.01-.85.05-1.62-.29-1.04-.46-2.45-1-2.83-1.88-.64-1.5,1.28-1.56,2.06-2.28,2.89-2.68,5.83-5.3,8.71-7.99,2.61-2.44,5.6-4.2,8.95-5.36,2.84-.98,5.5-.65,7.83,1.29.63.52,1.34,1.39,1.35,2.1,0,1.09-1.23.92-2.04,1.16-3.96,1.18-6.43,4.41-9.44,6.9-3.57,2.94-6.73,6.69-12.98,6.35Z"/>
      <path class="cls-1" d="m28.2,19.2c-2.05-.09-3.84-.32-5.17-1.57-1.47-1.38-3.03-2.62.59-3.72,5.35-1.62,8.52-6.48,12.71-9.81C39.76,1.37,43.36-.02,47.68,1.13c1.11.29,2.48.76,2.78,1.91.33,1.25-1.25,1.37-1.96,2.02-3.11,2.87-6.19,5.77-9.35,8.58-3.22,2.86-6.89,4.89-10.95,5.57Z"/>
      <path class="cls-1" d="m90,.61c1.59-.02,2.97.44,4.22,1.27,1.28.84,1.58,1.58.01,2.54-4.16,2.56-7.16,6.48-10.91,9.54-2.77,2.26-5.72,4.06-9.25,4.85-2.65.59-4.98.03-6.91-1.82-1.53-1.46-2.47-2.54.9-3.12,4.06-.71,6.52-4.26,9.52-6.8,3.67-3.11,6.99-6.89,12.41-6.45Z"/>
      <path class="cls-1" d="m11.79,93.4c-.73-2.74-3.02-3.79-4.54-5.44-1.5-1.63-3.13-3.16-3.41-5.48-.2-1.67.22-3.27,1.71-4.26,1.96-1.3,2.47.83,3.42,1.67,1.85,1.66,3.77,3.32,5.25,5.29,2.03,2.69,2.63,6.04-.18,8.31-2.64,2.13-5.9,2.19-8.48-1.06,2.4-1.57,3.69,1.42,6.24.97Z"/>
      <path class="cls-1" d="m261.24,6.23c1.68-2.46,3.29-3.42,5.61-.46,1.42,1.81,3.63,2.97,5.17,4.71,1.57,1.77,2.56,3.93,1.89,6.47-.3,1.15-.65,2.4-1.72,2.97-1.56.83-1.88-.94-2.65-1.64-3.72-3.38-8.65-5.98-8.21-12.17l-.09.12Z"/>
      <path class="cls-1" d="m15.91,135.67c.06.78-.52,2.14-1.8,2.98-1.74,1.15-2.13-.92-3.06-1.57-1.78-1.26-3.57-2.57-5.06-4.15-1.71-1.81-3.14-3.94-2.54-6.66.31-1.41.72-3.04,2.27-3.51,1.45-.43,1.64,1.35,2.47,2.05,2.01,1.68,3.97,3.43,5.82,5.28,1.28,1.27,1.82,2.96,1.9,5.58Z"/>
      <path class="cls-1" d="m6.62,31.31c1.52-1.3,3.04.05,4.76-.66-.8-1.85-2.69-2.38-3.99-3.49-1.92-1.62-3.79-3.26-3.99-5.99-.11-1.51.22-3.03,1.4-3.98,1.59-1.28,2.2.76,3.18,1.33,2.25,1.31,4.66,2.51,6.17,4.76,1.55,2.3,2.69,5.2.62,7.24-2.02,1.99-5.11,2.76-8.15.79Z"/>
      <path class="cls-1" d="m8.02,16.15c-1.75.11-3.34-.46-4.18-1.92-.93-1.64,1.11-2.09,1.8-3.04,1.87-2.59,3.64-5.34,6.76-6.69,2.13-.92,4.23-1.18,6.26.21.7.48,1.76,1.32.91,2.05-3.4,2.91-5.23,7.52-9.83,9.11-.54.19-1.15.19-1.73.27Z"/>
      <path class="cls-1" d="m273.56,106.12c-.08,1.5-.3,2.99-1.69,3.84-1.61.98-2.34-.57-3.23-1.4-1.81-1.7-3.61-3.4-5.3-5.21-1.84-1.98-2.19-4.38-1.44-6.94.3-1.03.92-1.9,1.92-2.24,1.41-.49,1.49.88,2.12,1.61,1.62,1.87,3.42,3.58,5.12,5.38,1.32,1.4,2.42,2.93,2.49,4.97Z"/>
      <path class="cls-1" d="m232.52,15.8c-1.68.17-3.55-.19-4.28-2.03-.85-2.12,1.7-1.86,2.56-2.84,1.54-1.76,3.18-3.45,4.87-5.08,1.53-1.47,3.35-2.44,5.55-2.08,1.34.22,2.59.89,3.16,2.16.66,1.5-.9,1.93-1.65,2.72-1.82,1.91-3.64,3.82-5.52,5.68-1.22,1.21-2.82,1.47-4.69,1.47Z"/>
      <path class="cls-1" d="m143.95,15.91c-2.56-.07-4.61-.08-5.37-1.93-.83-2.02,1.68-1.91,2.54-2.91,1.52-1.78,3.2-3.44,4.9-5.06,1.42-1.35,3.1-2.22,5.18-1.91,1.39.21,2.58.85,3.21,2.08.79,1.54-.81,1.98-1.58,2.69-2.93,2.71-4.85,6.84-8.86,7.04Z"/>
      <path class="cls-1" d="m273.51,60.68c.06,2.36-.48,3.69-1.85,4.48-1.67.96-2.26-.68-3.15-1.5-1.7-1.59-3.38-3.19-5.04-4.83-1.67-1.66-2.23-3.73-1.91-6,.21-1.45.68-3.01,2.27-3.42,1.49-.38,1.65,1.33,2.4,2.1,1.72,1.77,3.47,3.51,5.16,5.3,1.23,1.3,2.02,2.82,2.1,3.86Z"/>
      <path class="cls-1" d="m188.29,15.83c-2.12-.01-4.13-.14-4.88-1.92-.83-1.95,1.64-1.93,2.5-2.93,1.61-1.87,3.36-3.64,5.19-5.29,1.83-1.64,4.04-2.55,6.41-1.28,1.64.88,2.92,2.05.7,3.94-2.09,1.79-3.93,3.88-5.89,5.82-1.2,1.18-2.63,1.8-4.02,1.65Z"/>
      <path class="cls-1" d="m261.33,6.1c-2.34,1.1-2.91,3.58-4.26,5.45-2.12,2.94-4.73,4.8-8.55,4.2-1.05-.17-1.96-.69-2.48-1.66-.71-1.32.56-1.68,1.19-2.42,1.8-2.09,3.31-4.47,5.29-6.36,3.02-2.88,6.21-2.41,8.71.91,0,0,.09-.12.09-.12Z"/>
      <path class="cls-1" d="m138.72,129.88c-.23.31-.34.65-.57.76-3.64,1.76-5.31,5.78-8.86,7.66-2.33,1.23-4.65,1.41-6.28-.78-1.66-2.23,1.13-2.89,2.09-4.02,2.13-2.52,4.04-5.49,7.68-6.11,2.46-.42,4.58.2,5.93,2.49Z"/>
      <path class="cls-1" d="m48.98,129.99c-1.04.87-2.18,1.74-3.23,2.72-2.23,2.07-3.92,4.78-6.89,5.98-1.96.79-3.9.43-5.24-1.07-1.74-1.94.62-2.77,1.53-3.82,2.19-2.52,4.21-5.32,7.61-6.38,2.59-.81,6.48.78,6.23,2.57Z"/>
      <path class="cls-1" d="m98.16,15.98c-1.67-.04-3.48-.19-4.25-1.78-1.02-2.11,1.53-1.98,2.35-2.94,1.6-1.89,3.38-3.63,5.18-5.33,1.71-1.61,3.82-2.34,6.05-1.39,1.9.8,3.55,1.99.99,4.07-3.29,2.67-5.21,7.27-10.32,7.38Z"/>
      <path class="cls-1" d="m60.63,4.28c1.7,0,3.28.39,4.09,2,.86,1.71-.96,2.18-1.75,3.06-1.46,1.63-3.03,3.15-4.53,4.73-1.79,1.89-4.04,2.13-6.45,1.84-1.21-.15-2.39-.56-2.92-1.66-.8-1.67,1.05-1.7,1.77-2.43,1.63-1.66,3.22-3.38,4.9-4.99,1.37-1.31,2.83-2.55,4.91-2.56Z"/>
      <path class="cls-1" d="m15.46,44.42c-.09,1.78-.17,3.82-1.96,4.59-1.98.84-1.93-1.67-2.94-2.53-2-1.69-3.83-3.61-5.56-5.59-1.71-1.95-2-4.23-.55-6.48.51-.79,1.14-1.75,2.47-1.22,2.46.98,8.48,8.82,8.55,11.22Z"/>
      <path class="cls-1" d="m183.23,130.11c-.25.27-.6.7-1,1.08-2.01,1.91-4,3.83-6.05,5.69-1.54,1.4-3.23,2.53-5.48,2.34-1.43-.13-2.54-.88-3.22-2.03-.9-1.54.83-1.93,1.51-2.69,1.65-1.86,3.34-3.7,5.17-5.37,2.15-1.97,4.72-2.21,7.38-1.14.79.32,1.57.83,1.69,2.13Z"/>
      <path class="cls-1" d="m216,139.25c-1.4-.02-2.62-.48-3.39-1.67-1.03-1.6.44-2.33,1.29-3.23,1.6-1.69,3.16-3.42,4.85-5.02,1.81-1.72,4.03-2.23,6.48-1.72,1.35.28,2.7.89,3.05,2.19.33,1.25-1.34,1.24-2.02,1.91-1.55,1.54-3.02,3.15-4.6,4.65-1.59,1.51-3.27,2.93-5.67,2.89Z"/>
      <path class="cls-1" d="m21.45,139.12c-2.34.14-3.71-.11-4.54-1.24-1.27-1.73.99-2.04,1.51-3.05,1.14-2.2,2.18-4.54,4.27-6.06,2.08-1.51,4.3-2.67,6.93-1.34.9.45,2.35,1.44,1.6,2.19-3.17,3.12-4.53,8.08-9.41,9.47-.41.12-.87.08-.36.04Z"/>
      <path class="cls-1" d="m93.78,129.34c-.07.48-.07.62-.11.75-.28,1.04-10.43,8.98-11.58,9.01-1.56.05-2.96-.46-3.81-1.77-.91-1.39.5-2.11,1.21-2.92,2.39-2.73,4.35-6.01,8.21-7,2.49-.63,4.53.16,6.09,1.93Z"/>
    </g>
  </g>
</svg>