<?xml version="1.0" encoding="UTF-8"?>
<svg id="Layer_2" data-name="Layer 2" xmlns="http://www.w3.org/2000/svg" viewBox="0 0 265.92 132.08">
  <defs>
    <style>
      .cls-1 {
        fill: #fff;
      }
    </style>
  </defs>
  <g id="Layer_1-2" data-name="Layer 1">
    <g>
      <path class="cls-1" d="m248.29,34.51c-2.59-6.21-1.17-11.02,3.54-12.95,4.74-1.94,9.83.39,12,5.93,3.5,8.93,2.09,17.61-2.22,25.9-1.47,2.83-3.37,5.44-5.44,7.98,1.53-3.84,3.24-7.54,4.1-11.58.88-4.15.72-8.19-.68-12.14-2.06-5.79-6.23-6.99-11.3-3.14Z"/>
      <path class="cls-1" d="m256.11,0c5.56-.08,9.77,4.12,9.72,9.68-.05,5.28-4.27,9.39-9.6,9.35-5.41-.04-9.44-4.07-9.48-9.47-.04-5.35,4.01-9.48,9.36-9.56Z"/>
      <path class="cls-1" d="m256.33,131.22c-5.34.02-9.6-4.19-9.53-9.41.08-5.71,3.74-9.54,9.23-9.65,5.59-.11,9.8,4,9.82,9.58.02,5.22-4.23,9.46-9.52,9.48Z"/>
      <path class="cls-1" d="m51.65,114.62c5.89-2.64,10.69-1.39,12.77,3.06,2.21,4.71,0,9.71-5.39,12.19-9.63,4.43-25.27,1.1-33.46-7.7,4.07,1.98,7.38,3.4,10.92,4.23,4.28,1,8.46.79,12.55-.75,5.51-2.07,6.59-6.39,2.62-11.04Z"/>
      <path class="cls-1" d="m9.19,26.93c-1.37,4.12-3.48,7.98-3.93,12.38-.35,3.38-.31,6.74.78,10.01,1.78,5.34,5.11,6.79,10.23,4.27,1.85-.91,1.89.47,2.23,1.45,1.36,4.03-.58,8.88-4.15,10.53-3.83,1.77-8.86.31-11.16-3.58-4.03-6.79-3.62-14.08-1.66-21.33,1.38-5.13,4.02-9.71,7.68-13.74Z"/>
      <path class="cls-1" d="m19.13,122.78c-.1,5.5-4.02,9.31-9.55,9.3-5.28-.01-9.5-4.28-9.41-9.53.08-5.31,4.34-9.42,9.64-9.3,5.52.12,9.42,4.11,9.33,9.53Z"/>
      <path class="cls-1" d="m206.4,122.83c4.26,1.4,7.52,2.56,10.91,3.29,3.79.82,7.35.21,10.79-1.01,5.95-2.12,7-6.12,3.18-11.05,5.02-2.91,10.02-1.86,12.37,2.59,2.48,4.69.65,10.01-4.65,12.4-7.83,3.54-15.76,2.7-23.52-.36-3.02-1.19-6.14-2.42-9.08-5.86Z"/>
      <path class="cls-1" d="m240.48,9.77c-4.12-1.89-8.22-3.67-12.71-4.37-4.31-.68-8.5-.33-12.4,1.69-4.18,2.17-5.1,5.3-2.51,9.24,1.22,1.86-.04,1.84-1.04,2.24-4,1.62-8.66-.04-10.59-3.75-1.94-3.74-.67-8.8,3.08-11.22,6.99-4.51,14.62-3.77,22.09-1.84,5.29,1.37,10.05,4.14,14.08,8Z"/>
      <path class="cls-1" d="m115.99,122.93c3.74,1.17,7.29,2.76,11.16,3.48,4.17.78,8.17.47,12.01-1.24,4.75-2.12,5.72-5.2,2.91-9.63-1.17-1.85.19-1.83,1.17-2.22,3.98-1.58,8.53.01,10.63,3.7,1.97,3.46,1.09,8.02-2.18,10.65-5.8,4.64-12.6,4.25-19.3,3.31-6.24-.88-11.61-3.97-16.4-8.04Z"/>
      <path class="cls-1" d="m18.87,10.47c.11,5.37-3.95,9.63-9.2,9.65C4.29,20.13.02,16.01.04,10.82.06,5.58,4.25,1.2,9.38,1.08c5.28-.13,9.38,3.93,9.49,9.39Z"/>
      <path class="cls-1" d="m123.85,18.12c-6.02,2.52-10.73,1.18-12.61-3.36-1.93-4.64.21-9.5,5.37-11.85,7.24-3.3,14.58-2.54,21.81-.02,4.28,1.49,8.21,3.73,11.56,7.03-3-1.13-5.96-2.39-9.01-3.35-4.75-1.48-9.54-1.41-14.18.47-5.53,2.24-6.59,6.16-2.93,11.08Z"/>
      <path class="cls-1" d="m60.15,9.54c-4.01-1.03-7.64-2.43-11.53-3.17-3.86-.73-7.57-.4-11.21.93-5.74,2.1-6.92,6.24-3.17,10.98-4.92,2.76-9.69,1.87-12.08-2.26-2.53-4.37-1.01-9.87,3.98-12.23,9.84-4.66,19.37-2.65,28.55,2.21,1.91,1.01,3.65,2.35,5.47,3.53Z"/>
      <path class="cls-1" d="m162.02,120.7c7.57-7.58,23.98-10.42,32.39-6.07,4.74,2.45,6.72,7.49,4.82,12.23-1.5,3.74-6.21,5.73-10.34,4.33-1.66-.57-2.84-.93-1.29-3.27,2.57-3.87,1.07-7.6-3.39-9.48-5.9-2.49-11.76-1.52-17.57.45-1.33.45-2.63,1.03-4.62,1.82Z"/>
      <path class="cls-1" d="m11,73.36c6.59,8.2,9.58,17.58,7.47,28.12-1.37,6.85-5.4,10.1-11.06,9.59-5.7-.51-9.08-6.64-6.56-11.79.67-1.37,1.17-1.53,2.62-.72,4.75,2.64,8.25,1.23,10.15-3.96,1.86-5.05,1.23-10.11-.32-15.1-.65-2.08-1.53-4.09-2.31-6.13Z"/>
      <path class="cls-1" d="m72.5,121.04c8.46-6.85,18.07-10,28.92-7.33,6.05,1.49,8.92,5.32,8.63,10.51-.24,4.45-3.52,7.64-7.93,7.72-4.13.07-5.01-1.21-3.37-4.95,1.42-3.26-.21-6.57-4.28-8.32-5.75-2.48-11.49-1.49-17.17.32-1.65.53-3.2,1.36-4.8,2.06Z"/>
      <path class="cls-1" d="m253.67,101.23c-6.28-8.62-9.09-18.16-5.46-28.68,1.61-4.65,5.3-7.01,9.67-6.92,3.9.08,6.18,2.25,7.55,5.67.51,1.27.64,2.56.3,3.88-.63,2.47-.81,5.09-4.59,2.34-2.92-2.12-6.69-.13-8.47,3.67-2.54,5.43-1.62,10.89-.18,16.35.33,1.24.78,2.46,1.17,3.68Z"/>
      <path class="cls-1" d="m192.02,12.85c-9.4,5.85-18.96,8.42-29.47,5.26-3.67-1.1-6.28-3.61-7.09-7.67-1.09-5.46,2.58-9.97,8.17-9.9,4.22.05,4.73.8,3.15,4.64-1.42,3.45.44,7.1,4.62,8.59,5.62,1.99,11.23,1.46,16.8-.39,1.05-.35,1.99-1.34,3.84-.52Z"/>
      <path class="cls-1" d="m103.27,12.75c-9.96,6.09-19.79,9.32-30.83,5.61-4.66-1.57-6.98-5.2-6.81-9.71.14-3.86,2.31-6.16,5.82-7.41,1.45-.52,2.85-.46,4.31-.06,2.19.6,3.92.9,1.76,3.89-2.4,3.33-.56,7.26,3.74,9.09,5.93,2.52,11.79,1.41,17.61-.5,1.2-.39,2.21-1.45,4.4-.91Z"/>
      <path class="cls-1" d="m163.16,122.56c3.63-1.57,6.98-1.74,10.17.4,1.26.85,2.11,2.11,1.49,3.76-.52,1.37-1.54,2.11-3.08,1.87-1.74-.27-2.48-1.43-2.51-3.07-.08-5-4.04-1.37-6.08-2.96Z"/>
      <path class="cls-1" d="m256.68,101.38c-1.27-2.89-1.47-5.83.08-8.71.82-1.52,2.15-2.46,3.98-1.97,1.41.38,2.33,1.49,2.17,2.9-.2,1.74-1.3,3.05-3.23,2.88-4.56-.41-1.64,3.45-3,4.89Z"/>
      <path class="cls-1" d="m9.27,75.25c.81,2.94,1.52,5.92-.05,8.82-.88,1.64-2.31,2.63-4.31,2.14-1.3-.32-1.96-1.29-1.92-2.56.07-2.13,1.41-3.09,3.42-3.11,4.29-.03,1.44-3.56,2.86-5.29Z"/>
      <path class="cls-1" d="m189.98,10.16c-3.28.29-5.9.64-8.19-1.16-1.28-1-1.8-2.28-1.31-3.84.4-1.26,1.33-1.89,2.65-1.8,1.75.12,2.88,1.25,2.61,2.85-.55,3.27,2.58,2.41,4.24,3.96Z"/>
      <path class="cls-1" d="m74.52,122.61c2.72-.72,5.45-.99,8.09,0,1.72.64,3.02,1.93,2.67,4.02-.25,1.45-1.35,2.44-2.75,2.36-2.1-.11-2.94-1.54-2.87-3.62.14-4.32-3.83-.96-5.13-2.75Z"/>
      <path class="cls-1" d="m101.41,10.07c-2.84.99-5.72,1.15-8.51-.1-1.76-.79-2.76-2.23-2.22-4.27.34-1.26,1.36-2.05,2.61-1.93,1.9.18,2.67,1.47,2.68,3.37.01,4.27,3.62,1.52,5.44,2.93Z"/>
      <path class="cls-1" d="m208.34,120.95c2.48-.82,6.49,1.06,6.15-3.96-.06-.92,1.25-1.57,2.4-1.46,1.12.11,1.87.77,2.32,1.77.56,1.25.18,2.34-.85,3.12-3.14,2.38-6.45,2.28-10.02.53Z"/>
      <path class="cls-1" d="m119.94,121.76c1.74-1.37,5.47.09,4.66-4.21-.16-.84,1.14-1.58,2.29-1.59,1.3,0,2.24.55,2.67,1.81.43,1.26.03,2.31-.96,3.1-2.66,2.12-5.66,1.51-8.66.89Z"/>
      <path class="cls-1" d="m148.02,10.9c-3.67.78-7.64-.71-7.58,4.34.01.89-1.43,1.4-2.55,1.19-1.1-.2-1.81-.98-2.15-2-.5-1.53.37-2.63,1.53-3.31,3.16-1.85,6.44-1.06,10.74-.22Z"/>
      <path class="cls-1" d="m235.95,9.96c-3.27,1.07-5.72,1.09-5.41,4.28.1.99-1.06,1.68-2.19,1.7-1.26.03-2.28-.53-2.77-1.71-.5-1.2-.11-2.32.86-3.12,2.49-2.05,5.37-1.66,9.5-1.15Z"/>
      <path class="cls-1" d="m9.92,32.29c.94,1.67.84,3.85,3.64,3.71,1.55-.08,2.22,1.23,2.13,2.73-.07,1.09-.67,1.97-1.68,2.37-1.44.57-2.58-.14-3.42-1.25-1.78-2.35-.92-5.01-.67-7.56Z"/>
      <path class="cls-1" d="m255.83,55.88c-.77-2.17-.45-5.14-4.17-4.65-1.22.16-1.74-1.32-1.66-2.61.07-1.12.62-1.9,1.68-2.3,1.44-.56,2.58-.02,3.43,1.11,1.94,2.57,1.27,5.44.72,8.46Z"/>
      <path class="cls-1" d="m29.76,121.91c2.54-.73,5.64-.57,5.58-4.49-.02-1.05,1.36-1.38,2.47-1.21,1.11.17,1.85.84,2.21,1.87.51,1.47-.15,2.61-1.32,3.37-2.8,1.82-5.81,1.12-8.94.46Z"/>
      <path class="cls-1" d="m55.23,10.84c-1.8,1.24-4.78,1-4.28,4.47.14,1-1.22,1.45-2.33,1.44-1.17,0-1.85-.66-2.3-1.66-.57-1.27-.05-2.33.84-3.11,2.4-2.11,5.22-1.48,8.07-1.14Z"/>
    </g>
  </g>
</svg>