<?xml version="1.0" encoding="UTF-8"?>
<svg id="Layer_2" data-name="Layer 2" xmlns="http://www.w3.org/2000/svg" viewBox="0 0 249.64 93.65">
  <defs>
    <style>
      .cls-1 {
        fill: #fff;
      }
    </style>
  </defs>
  <g id="Layer_1-2" data-name="Layer 1">
    <g>
      <path class="cls-1" d="m242.23,81.96c.13,1.51-.29,2.38-1.42,2.76-1,.33-2.03.39-2.88-.42-.83-.8-1.19-2.18-.5-2.78,1.93-1.67,1.01-2.92,0-4.53-.67-1.07-.16-2.34.84-3.13,1.01-.8,2.19-.85,3.24-.03.98.76,1.87,2.03,1.14,3.02-1.37,1.87-2.31,3.48-.43,5.11Z"/>
      <path class="cls-1" d="m236,9.54c-.3,1.49-.88,2.74-2.7,2.8-2.03.07-2.94-1.11-2.88-2.94.06-1.66,1.14-2.72,2.81-2.65,1.6.07,2.61,1.08,2.78,2.79Z"/>
      <path class="cls-1" d="m76.18,13.4c-1.7-.04-2.76-.84-2.78-2.6-.02-1.72.95-2.72,2.66-2.75,1.68-.03,2.79.91,2.8,2.62,0,1.64-.9,2.69-2.68,2.74Z"/>
      <path class="cls-1" d="m120.71,13.25c-1.64-.03-2.55-1.02-2.53-2.72.02-1.76,1.28-2.67,2.84-2.7,1.67-.04,2.72,1.08,2.71,2.77-.02,1.75-1.19,2.52-3.01,2.65Z"/>
      <path class="cls-1" d="m239.84,34.22c-1.48-.17-2.69-.71-2.73-2.57-.04-1.63.54-2.9,2.28-3.09,1.92-.21,2.98.89,3.1,2.75.11,1.73-.95,2.6-2.65,2.91Z"/>
      <path class="cls-1" d="m150.98,80.45c1.68.22,2.77,1.26,2.72,2.83-.05,1.77-1.23,2.99-3.12,2.78-1.61-.18-2.61-1.29-2.46-2.99.14-1.65,1.18-2.54,2.86-2.62Z"/>
      <path class="cls-1" d="m191.11,9.91c-.14,1.76-1.04,2.71-2.77,2.77-1.79.06-2.74-.93-2.78-2.64-.04-1.73,1.02-2.76,2.7-2.78,1.67-.03,2.64,1.01,2.86,2.65Z"/>
      <path class="cls-1" d="m242.49,46.08c-.08,1.94-.96,3.08-2.61,3.11-1.91.04-2.83-1.21-2.78-3.08.05-1.77,1.18-2.59,2.8-2.61,1.82-.02,2.36,1.31,2.59,2.58Z"/>
      <path class="cls-1" d="m188.31,85.85c-1.77-.01-2.82-.97-2.83-2.65,0-1.63.93-2.78,2.72-2.8,1.74-.02,2.8.96,2.85,2.66.05,1.73-1.06,2.61-2.74,2.8Z"/>
      <path class="cls-1" d="m218.03,12.47c-1.65-.22-2.61-1.21-2.52-2.88.09-1.71,1.19-2.56,2.91-2.47,1.74.1,2.66,1.18,2.59,2.82-.07,1.72-1.3,2.44-2.98,2.52Z"/>
      <path class="cls-1" d="m218.34,85.7c-1.72-.1-2.81-.99-2.86-2.7-.05-1.7.85-2.79,2.67-2.77,1.71.02,2.84.83,2.86,2.62.02,1.72-.94,2.7-2.68,2.85Z"/>
      <path class="cls-1" d="m161.22,9.88c-.14,2.1-1.15,3.01-2.82,3.12-1.83.12-2.65-.94-2.67-2.67-.01-1.75.96-2.8,2.64-2.82,1.68-.03,2.55,1.13,2.84,2.37Z"/>
      <path class="cls-1" d="m131.27,83.41c-.2,1.59-1,2.78-2.69,2.82-1.72.04-2.64-1.14-2.69-2.78-.06-1.69.87-2.8,2.61-2.78,1.65.02,2.66.97,2.78,2.74Z"/>
      <path class="cls-1" d="m239.83,19.46c-1.7-.12-2.63-1.05-2.73-2.73-.1-1.74.83-2.77,2.52-2.86,1.74-.1,2.68,1,2.77,2.64.1,1.7-.94,2.61-2.56,2.95Z"/>
      <path class="cls-1" d="m173.58,80.51c1.66.23,2.64,1.17,2.54,2.9-.09,1.73-1.18,2.68-2.88,2.59-1.72-.09-2.63-1.17-2.54-2.9.09-1.74,1.07-2.62,2.87-2.59Z"/>
      <path class="cls-1" d="m206.03,82.93c-.23,1.6-.96,2.76-2.74,2.78-1.78.02-2.67-1.08-2.74-2.74-.08-1.74.85-2.69,2.65-2.7,1.77,0,2.64.93,2.83,2.65Z"/>
      <path class="cls-1" d="m41.86,84.16c-.3,1.84-1.24,2.77-3,2.63-1.75-.14-2.62-1.14-2.48-2.9.14-1.72,1.05-2.65,2.86-2.51,1.81.14,2.41,1.35,2.61,2.78Z"/>
      <path class="cls-1" d="m60.96,8.22c1.94.07,3.06.89,3.12,2.63.05,1.49-.77,2.46-2.36,2.6-1.72.16-3-.52-3.14-2.27-.13-1.66.92-2.68,2.38-2.96Z"/>
      <path class="cls-1" d="m64.11,84c-.28,1.66-1.22,2.63-2.97,2.54-1.82-.09-2.64-1.33-2.53-2.96.11-1.47,1.14-2.35,2.7-2.34,1.8,0,2.63,1.03,2.79,2.76Z"/>
      <path class="cls-1" d="m91.76,81.12c1.39.12,2.4,1.07,2.12,2.8-.25,1.56-1.27,2.68-3.01,2.5-1.69-.18-2.61-1.38-2.53-2.99.09-1.79,1.43-2.35,3.41-2.31Z"/>
      <path class="cls-1" d="m9.61,22.41c1.66.16,2.67,1,2.7,2.76.03,1.7-.81,2.89-2.53,2.94-1.66.05-2.75-1-2.82-2.71-.07-1.72,1.02-2.62,2.65-3Z"/>
      <path class="cls-1" d="m233.2,85.63c-1.82-.06-2.7-1.15-2.76-2.76-.07-1.67.83-2.73,2.63-2.75,1.76-.02,2.77.95,2.8,2.62.02,1.67-1.09,2.58-2.66,2.89Z"/>
      <path class="cls-1" d="m228.39,82.75c-.05,1.53-.69,2.79-2.47,2.89-1.7.1-2.78-.91-2.98-2.56-.2-1.73.71-2.76,2.49-2.88,1.74-.12,2.78.64,2.96,2.55Z"/>
      <path class="cls-1" d="m31.53,8.33c1.58.31,2.69,1.17,2.69,2.87,0,1.78-1.19,2.64-2.82,2.61-1.65-.03-2.76-.97-2.65-2.75.11-1.63,1-2.67,2.77-2.73Z"/>
      <path class="cls-1" d="m26.87,11.26c-.37,1.84-1.41,2.77-3.07,2.66-1.65-.12-2.73-1.16-2.58-2.88.14-1.69,1.37-2.59,2.99-2.52,1.7.08,2.47,1.28,2.66,2.74Z"/>
      <path class="cls-1" d="m180.9,85.93c-1.73-.11-2.78-1-2.85-2.72-.07-1.73.91-2.76,2.65-2.81,1.74-.05,2.77.95,2.83,2.66.06,1.72-.95,2.67-2.64,2.87Z"/>
      <path class="cls-1" d="m206.03,9.85c-.16,1.71-.98,2.68-2.72,2.76-1.81.08-2.67-.91-2.69-2.58-.03-1.68.9-2.73,2.61-2.76,1.68-.02,2.59.98,2.8,2.59Z"/>
      <path class="cls-1" d="m158.61,80.47c1.61.14,2.56,1.15,2.46,2.84-.1,1.65-1.17,2.75-2.86,2.67-1.68-.08-2.67-1.24-2.62-2.91.05-1.71,1.14-2.59,3.02-2.61Z"/>
      <path class="cls-1" d="m180.6,12.72c-1.69-.09-2.65-.99-2.54-2.73.11-1.68,1.18-2.64,2.82-2.62,1.71.02,2.61,1.11,2.56,2.8-.05,1.74-1.09,2.55-2.84,2.55Z"/>
      <path class="cls-1" d="m133.11,83.36c.25-1.98,1.3-2.83,2.99-2.73,1.75.1,2.58,1.2,2.5,2.92-.08,1.78-1.18,2.66-2.86,2.55-1.74-.11-2.4-1.39-2.63-2.74Z"/>
      <path class="cls-1" d="m173.54,7.34c1.74.26,2.65,1.27,2.55,2.96-.11,1.78-1.29,2.53-2.98,2.39-1.54-.12-2.31-1.07-2.29-2.62.02-1.8,1.12-2.53,2.72-2.73Z"/>
      <path class="cls-1" d="m148.06,10.33c.09-1.78,1.36-2.63,2.82-2.75,1.64-.14,2.76,1.04,2.8,2.67.05,1.69-1.08,2.69-2.75,2.71-1.65.02-2.69-.89-2.88-2.63Z"/>
      <path class="cls-1" d="m143.47,7.63c1.66.33,2.74,1.2,2.63,2.96-.11,1.79-1.34,2.6-2.99,2.48-1.47-.11-2.38-1.08-2.38-2.63,0-1.81,1.18-2.51,2.75-2.8Z"/>
      <path class="cls-1" d="m225.68,12.51c-1.74-.14-2.77-1.04-2.76-2.78,0-1.72,1.02-2.76,2.73-2.77,1.71-.01,2.73.96,2.71,2.74-.02,1.73-.96,2.67-2.67,2.81Z"/>
      <path class="cls-1" d="m9.74,37.36c1.73.13,2.69,1.05,2.7,2.76.01,1.71-.98,2.78-2.63,2.82-1.65.04-2.76-.99-2.76-2.7,0-1.68,1.14-2.54,2.69-2.88Z"/>
      <path class="cls-1" d="m239.59,65.92c2,.12,2.99,1.06,2.98,2.78,0,1.68-.89,2.81-2.67,2.78-1.72-.03-2.66-1.08-2.71-2.79-.06-1.78.95-2.63,2.4-2.77Z"/>
      <path class="cls-1" d="m12.47,47.67c-.04,1.52-.78,2.66-2.61,2.63-1.72-.03-2.81-.99-2.74-2.76.07-1.75,1.24-2.63,2.93-2.6,1.56.03,2.4.93,2.42,2.73Z"/>
      <path class="cls-1" d="m12.49,62.57c-.18,1.68-.97,2.85-2.76,2.74-1.69-.11-2.68-1.24-2.68-2.89,0-1.79,1.34-2.61,2.9-2.67,1.78-.07,2.55,1.13,2.55,2.83Z"/>
      <path class="cls-1" d="m239.9,56.58c-1.8-.1-2.72-1.01-2.75-2.76-.03-1.77.87-2.74,2.63-2.75,1.72,0,2.74.91,2.75,2.67,0,1.73-1.02,2.61-2.63,2.83Z"/>
      <path class="cls-1" d="m242.56,61.17c.06,1.96-1.01,2.86-2.67,2.88-1.69.02-2.74-.97-2.74-2.74,0-1.71.9-2.81,2.66-2.82,1.76,0,2.55,1.16,2.75,2.68Z"/>
      <path class="cls-1" d="m105.96,86.46c-1.7-.31-2.66-1.34-2.57-2.99.09-1.72,1.25-2.51,2.95-2.43,1.79.08,2.68,1.16,2.52,2.82-.15,1.61-1.24,2.53-2.9,2.6Z"/>
      <path class="cls-1" d="m78.99,83.56c-.18,1.53-.92,2.69-2.59,2.92-1.78.25-2.78-.8-2.95-2.4-.17-1.65.69-2.71,2.46-2.9,1.77-.19,2.68.71,3.07,2.38Z"/>
      <path class="cls-1" d="m9.86,52.21c1.77.18,2.61,1.15,2.57,2.86-.04,1.74-.95,2.7-2.72,2.56-1.65-.14-2.69-1.1-2.64-2.8.06-1.71,1.16-2.52,2.78-2.61Z"/>
      <path class="cls-1" d="m46.22,81.31c1.87,0,2.85.95,2.89,2.63.05,1.69-.92,2.75-2.64,2.79-1.72.04-2.75-1-2.81-2.66-.06-1.68.91-2.67,2.55-2.77Z"/>
      <path class="cls-1" d="m34.18,83.87c-.18,1.64-1.03,2.74-2.78,2.76-1.76.02-2.79-.97-2.7-2.73.07-1.45.82-2.47,2.47-2.55,1.77-.08,2.77.72,3.01,2.52Z"/>
      <path class="cls-1" d="m9.72,35.47c-1.69-.25-2.76-1.17-2.7-2.88.06-1.73,1.23-2.65,2.9-2.58,1.51.06,2.4,1.02,2.37,2.58-.03,1.65-.76,2.78-2.57,2.88Z"/>
      <path class="cls-1" d="m26.69,83.81c-.15,1.85-1.06,2.83-2.82,2.79-1.77-.04-2.69-1.15-2.64-2.83.04-1.52,1.06-2.35,2.57-2.44,1.8-.11,2.63.94,2.89,2.48Z"/>
      <path class="cls-1" d="m56.55,84.15c-.27,1.64-1.19,2.61-2.92,2.44-1.63-.16-2.71-1.04-2.57-2.8.14-1.73,1.31-2.5,2.94-2.46,1.74.05,2.53,1.11,2.55,2.82Z"/>
      <path class="cls-1" d="m19.3,84.19c-.22,1.8-1.33,2.67-2.98,2.52-1.73-.16-2.51-1.44-2.38-3.09.12-1.55,1.24-2.3,2.71-2.25,1.74.06,2.56,1.15,2.65,2.82Z"/>
      <path class="cls-1" d="m71.45,83.79c-.03,1.7-.86,2.72-2.61,2.75-1.72.03-2.7-.92-2.8-2.62-.11-1.77.86-2.67,2.6-2.71,1.72-.04,2.69.8,2.81,2.58Z"/>
      <path class="cls-1" d="m239.73,36.15c1.72.08,2.64,1.04,2.68,2.73.05,1.72-.87,2.74-2.6,2.78-1.74.03-2.66-.94-2.68-2.68-.01-1.71.83-2.69,2.6-2.82Z"/>
      <path class="cls-1" d="m86.42,83.78c-.16,1.55-.92,2.69-2.65,2.71-1.69.03-2.68-.96-2.77-2.65-.09-1.75.87-2.67,2.61-2.69,1.71-.03,2.69.8,2.81,2.63Z"/>
      <path class="cls-1" d="m242.43,24.03c-.16,1.71-1.07,2.64-2.79,2.63-1.8-.01-2.56-1.05-2.53-2.76.04-1.75.95-2.64,2.7-2.62,1.79.02,2.51,1.12,2.62,2.76Z"/>
      <path class="cls-1" d="m9.73,15.11c1.74.15,2.56,1.15,2.53,2.85-.03,1.76-1.01,2.7-2.74,2.61-1.66-.09-2.67-1.02-2.62-2.79.05-1.79,1.21-2.48,2.83-2.67Z"/>
      <path class="cls-1" d="m113.54,13.31c-1.83-.11-2.77-1.04-2.66-2.82.1-1.54,1.03-2.44,2.54-2.5,1.72-.06,2.8.85,2.84,2.62.04,1.81-1.1,2.57-2.73,2.7Z"/>
      <path class="cls-1" d="m101.25,10.87c-.23,1.84-1.36,2.55-3,2.43-1.51-.11-2.33-1.04-2.29-2.58.05-1.73.98-2.66,2.72-2.61,1.77.06,2.49,1.16,2.57,2.75Z"/>
      <path class="cls-1" d="m93.85,10.67c-.13,1.74-1.01,2.65-2.76,2.7-1.58.04-2.55-.82-2.67-2.27-.13-1.64.81-2.81,2.5-2.97,1.74-.16,2.62.93,2.93,2.53Z"/>
      <path class="cls-1" d="m86.39,10.62c0,1.84-.98,2.7-2.67,2.77-1.48.05-2.59-.59-2.69-2.18-.1-1.66.71-2.83,2.43-3.02,1.76-.19,2.65.83,2.93,2.44Z"/>
      <path class="cls-1" d="m68.81,8.14c1.83.17,2.65,1.24,2.59,2.92-.06,1.89-1.35,2.41-3,2.34-1.61-.07-2.37-1-2.32-2.55.05-1.75,1.06-2.61,2.72-2.71Z"/>
      <path class="cls-1" d="m41.65,11.22c-.17,1.96-1.39,2.62-3.01,2.54-1.52-.08-2.46-1.07-2.38-2.58.09-1.65,1.12-2.73,2.83-2.72,1.79.01,2.52,1.19,2.56,2.76Z"/>
      <path class="cls-1" d="m213.38,82.74c-.16,1.75-.87,2.92-2.65,2.93-1.73.01-2.68-1.07-2.77-2.7-.1-1.72.88-2.67,2.63-2.72,1.79-.06,2.61.92,2.78,2.49Z"/>
      <path class="cls-1" d="m198.49,83.13c-.1,1.65-.95,2.66-2.71,2.65-1.76-.02-2.7-1.13-2.71-2.76,0-1.66.95-2.69,2.74-2.69,1.82,0,2.58,1.05,2.68,2.8Z"/>
      <path class="cls-1" d="m12.49,69.71c-.08,1.75-.74,2.95-2.62,2.86-1.7-.08-2.78-1.05-2.75-2.78.03-1.51,1.04-2.42,2.51-2.57,1.8-.18,2.71.8,2.85,2.49Z"/>
      <path class="cls-1" d="m16.38,8.54c1.74.12,2.74.85,2.9,2.35.21,1.99-1.01,2.97-2.81,3.06-1.49.07-2.49-.85-2.46-2.39.04-1.63,1.15-2.51,2.37-3.02Z"/>
      <path class="cls-1" d="m242.2,9.75c0,1.51-.73,2.5-2.24,2.75-1.58.26-2.57-.59-2.79-2.08-.25-1.72.65-2.83,2.38-3,1.59-.16,2.37.84,2.65,2.33Z"/>
      <path class="cls-1" d="m213.45,9.92c-.3,1.74-1.2,2.7-2.94,2.61-1.77-.09-2.6-1.18-2.51-2.83.09-1.72,1.28-2.6,2.89-2.53,1.67.07,2.51,1.18,2.56,2.76Z"/>
      <path class="cls-1" d="m7.09,77.45c.11-1.74,1.03-2.82,2.72-2.88,1.74-.05,2.65,1.03,2.67,2.77.02,1.55-.8,2.6-2.33,2.62-1.58.02-2.77-.81-3.06-2.51Z"/>
      <path class="cls-1" d="m168.46,83.01c-.06,1.66-.85,2.73-2.64,2.81-1.56.07-2.53-.75-2.7-2.28-.19-1.69.56-2.94,2.33-3.09,1.69-.15,2.78.73,3.01,2.56Z"/>
      <path class="cls-1" d="m146.11,83.09c-.12,1.7-.94,2.77-2.63,2.9-1.75.14-2.72-.87-2.78-2.54-.06-1.63.73-2.84,2.49-2.86,1.62-.02,2.66.88,2.92,2.51Z"/>
      <path class="cls-1" d="m120.97,80.8c1.71.11,2.66,1.03,2.6,2.75-.06,1.64-.94,2.78-2.68,2.75-1.71-.03-2.63-1.18-2.7-2.8-.07-1.77,1.16-2.48,2.78-2.7Z"/>
      <path class="cls-1" d="m168.44,10.04c0,1.85-.85,2.79-2.61,2.76-1.7-.03-2.72-.9-2.71-2.64.01-1.7,1.03-2.7,2.67-2.76,1.76-.07,2.5,1.1,2.65,2.63Z"/>
      <path class="cls-1" d="m49.16,11.24c-.31,1.98-1.59,2.42-3.18,2.33-1.64-.09-2.27-1.16-2.17-2.64.11-1.69,1.08-2.75,2.8-2.59,1.71.15,2.29,1.52,2.55,2.9Z"/>
      <path class="cls-1" d="m56.52,10.75c-.16,2.02-1.18,2.83-2.89,2.77-1.5-.05-2.53-.77-2.55-2.37-.02-1.7.93-2.81,2.62-2.87,1.7-.06,2.58,1.06,2.82,2.46Z"/>
      <path class="cls-1" d="m113.46,86.35c-1.79-.32-2.74-1.29-2.62-3.03.13-1.88,1.45-2.42,3.09-2.27,1.54.14,2.43,1.06,2.31,2.62-.13,1.68-1.15,2.6-2.77,2.67Z"/>
      <path class="cls-1" d="m106.13,13.26c-1.78,0-2.69-.95-2.61-2.67.07-1.46.94-2.38,2.46-2.48,1.75-.11,2.78.84,2.85,2.5.07,1.71-.99,2.59-2.7,2.65Z"/>
      <path class="cls-1" d="m131.22,10.59c-.18,1.74-1.23,2.62-2.87,2.58-1.76-.04-2.56-1.2-2.45-2.88.11-1.53,1.09-2.29,2.59-2.32,1.76-.03,2.61.92,2.72,2.61Z"/>
      <path class="cls-1" d="m138.61,10.48c-.12,1.75-1.06,2.7-2.78,2.66-1.75-.04-2.65-1.09-2.57-2.8.07-1.53,1.05-2.36,2.53-2.43,1.75-.08,2.65.88,2.81,2.58Z"/>
      <path class="cls-1" d="m98.55,86.46c-1.94-.28-2.68-1.39-2.6-3.06.07-1.59.99-2.36,2.56-2.31,1.67.05,2.86.73,2.73,2.61-.12,1.71-1.26,2.49-2.68,2.76Z"/>
      <path class="cls-1" d="m198.48,9.97c-.19,1.92-1.23,2.74-2.94,2.64-1.53-.09-2.46-1-2.42-2.53.05-1.67,1.07-2.73,2.76-2.79,1.82-.06,2.5,1.17,2.61,2.68Z"/>
      <path class="cls-1" d="m249.17,9.97c-.13,1.45-.9,2.38-2.41,2.46-1.54.08-2.44-.8-2.54-2.29-.12-1.6.96-2.39,2.36-2.47,1.45-.08,2.42.72,2.59,2.31Z"/>
      <path class="cls-1" d="m242.07,2.97c-.42,1.53-1.18,2.59-2.75,2.47-1.61-.12-2.27-1.31-2.1-2.76.14-1.27,1.07-2.13,2.39-2.12,1.56.02,2.27,1.06,2.46,2.41Z"/>
      <path class="cls-1" d="m2.87,88.59c1.32.06,2.23.7,2.39,2.04.19,1.57-.67,2.6-2.19,2.64-1.31.03-2.09-.9-2.18-2.25-.09-1.39.65-2.16,1.98-2.43Z"/>
      <path class="cls-1" d="m12.53,90.83c-.11,1.56-.92,2.55-2.47,2.5-1.29-.04-2.22-.84-2.14-2.26.09-1.49.91-2.54,2.47-2.52,1.36.01,2.03.97,2.14,2.29Z"/>
      <path class="cls-1" d="m2.79,72.4c-1.42-.11-2.54-.77-2.55-2.32,0-1.3.9-2.13,2.23-2.2,1.52-.08,2.6.64,2.55,2.24-.03,1.25-.82,2.13-2.24,2.28Z"/>
      <path class="cls-1" d="m212.87,2.47c-.23,1.42-.84,2.54-2.44,2.47-1.34-.06-2.08-1.07-2.14-2.29-.07-1.5.81-2.43,2.38-2.38,1.34.05,2.01.92,2.2,2.19Z"/>
      <path class="cls-1" d="m91.3,93.39c-1.43-.31-2.33-1.1-2.23-2.65.08-1.34.97-2.2,2.2-2.2,1.5,0,2.31,1.04,2.19,2.58-.1,1.3-.85,2.07-2.16,2.27Z"/>
      <path class="cls-1" d="m4.92,40.35c-.27,1.46-1.08,2.34-2.64,2.21-1.3-.11-2.23-.89-2.13-2.2.1-1.44,1.05-2.35,2.6-2.24,1.33.09,1.99.96,2.17,2.24Z"/>
      <path class="cls-1" d="m246.28,80.08c1.91.02,2.76.93,2.81,2.41.05,1.31-.75,2.18-2.11,2.27-1.5.1-2.58-.63-2.72-2.15-.14-1.55.87-2.32,2.01-2.52Z"/>
      <path class="cls-1" d="m12.61,83.75c-.11,1.61-.79,2.64-2.39,2.71-1.65.08-2.39-.92-2.46-2.45-.08-1.6.8-2.48,2.35-2.59,1.66-.11,2.32.93,2.5,2.32Z"/>
      <path class="cls-1" d="m246.97,26.1c-1.42-.17-2.28-.91-2.3-2.22-.03-1.57,1.03-2.36,2.49-2.33,1.27.03,2.18.78,2.17,2.17-.01,1.56-.93,2.31-2.36,2.38Z"/>
      <path class="cls-1" d="m70.85,3.45c.04,1.33-.56,2.33-1.86,2.49-1.51.19-2.46-.73-2.64-2.2-.15-1.32.62-2.29,1.87-2.48,1.53-.23,2.39.69,2.62,2.18Z"/>
      <path class="cls-1" d="m5.05,77.73c-.28,1.29-1.16,1.92-2.49,1.84-1.28-.08-2.4-.65-2.31-2.08.09-1.51,1.08-2.44,2.66-2.23,1.28.17,2.05,1.04,2.14,2.48Z"/>
      <path class="cls-1" d="m226.01,92.66c-1.52-.26-2.23-1.12-2.3-2.43-.06-1.29.47-2.44,1.85-2.57,1.72-.16,2.22,1.3,2.37,2.6.17,1.37-.84,2.05-1.93,2.39Z"/>
      <path class="cls-1" d="m237.41,89.48c.07-1.13.63-2.11,2.02-2.24,1.6-.15,2.49.8,2.63,2.3.13,1.36-.67,2.25-2.02,2.39-1.58.16-2.46-.69-2.63-2.44Z"/>
      <path class="cls-1" d="m249.12,89.62c-.26,1.54-1.07,2.26-2.44,2.2-1.37-.06-2.31-.91-2.27-2.2.05-1.48,1.03-2.41,2.65-2.26,1.43.14,1.89,1.17,2.07,2.25Z"/>
      <path class="cls-1" d="m5.49,83.8c-.09,1.65-.95,2.55-2.44,2.55-1.56,0-2.32-1.11-2.34-2.56-.02-1.41,1.06-2.03,2.26-2.16,1.56-.17,2.38.72,2.52,2.17Z"/>
      <path class="cls-1" d="m249.06,2.83c-.09,1.22-.5,2.3-1.88,2.5-1.59.23-2.52-.76-2.7-2.17-.2-1.55.82-2.48,2.31-2.53,1.32-.04,2.06.87,2.27,2.2Z"/>
      <path class="cls-1" d="m2.76,52.92c1.33.16,2.26.91,2.26,2.17,0,1.52-1.09,2.27-2.57,2.25-1.36-.02-2.21-.95-2.22-2.16-.01-1.5,1.05-2.23,2.53-2.26Z"/>
      <path class="cls-1" d="m76.21,88.64c1.46.23,2.24.99,2.24,2.37,0,1.33-.6,2.37-2,2.41-1.58.05-2.42-.97-2.41-2.5.01-1.42,1.1-1.93,2.17-2.28Z"/>
      <path class="cls-1" d="m5.07,47.73c-.18,1.39-.99,2.23-2.27,2.26-1.42.03-2.57-.69-2.63-2.29-.05-1.43.97-2.09,2.23-2.18,1.53-.11,2.4.77,2.67,2.22Z"/>
      <path class="cls-1" d="m158.15,5.46c-1.51-.3-2.26-1.24-2.1-2.75.14-1.3,1-2.2,2.28-2.11,1.53.1,2.24,1.21,2.08,2.72-.13,1.3-.9,2.07-2.26,2.14Z"/>
      <path class="cls-1" d="m86.17,91.16c-.41,1.36-1.12,2.46-2.69,2.21-1.28-.2-1.97-1.2-1.9-2.49.08-1.29.88-2.21,2.19-2.21,1.52,0,2.24,1.05,2.4,2.49Z"/>
      <path class="cls-1" d="m173.23.55c1.42.19,2.22.89,2.18,2.3-.03,1.31-.63,2.37-2,2.43-1.56.08-2.4-.92-2.34-2.48.05-1.38.95-2.03,2.16-2.25Z"/>
      <path class="cls-1" d="m108.45,90.62c-.05,1.62-.58,2.64-1.97,2.66-1.45.02-2.47-.75-2.49-2.33-.02-1.33.79-2.23,2.03-2.37,1.59-.18,2.22.94,2.42,2.04Z"/>
      <path class="cls-1" d="m113.75,93.32c-1.43-.24-2.39-1.1-2.36-2.58.02-1.25.76-2.21,2.13-2.31,1.41-.1,2.24.85,2.37,2.06.16,1.41-.57,2.49-2.14,2.84Z"/>
      <path class="cls-1" d="m227.98,2.41c-.35,1.35-.9,2.4-2.28,2.38-1.52-.02-2.45-.97-2.39-2.47.05-1.24.78-2.18,2.19-2.2,1.61-.01,2.22,1.03,2.48,2.29Z"/>
      <path class="cls-1" d="m190.34,2.65c-.02,1.35-.69,2.39-2.01,2.46-1.53.09-2.45-.91-2.41-2.48.04-1.35.9-2.26,2.22-2.25,1.31,0,2.11.88,2.2,2.27Z"/>
      <path class="cls-1" d="m198,2.81c-.4,1.32-1.09,2.5-2.62,2.31-1.25-.15-1.97-1.18-1.86-2.49.13-1.46.92-2.5,2.5-2.27,1.24.18,1.91,1.15,1.98,2.46Z"/>
      <path class="cls-1" d="m158.48,92.85c-1.32-.02-2.17-.84-2.27-2.12-.12-1.52.71-2.49,2.34-2.5,1.47,0,2.13.93,2.1,2.25-.03,1.28-.64,2.24-2.17,2.37Z"/>
      <path class="cls-1" d="m203.1,5.13c-1.7-.4-2.39-1.36-2.17-2.87.19-1.31,1-2.1,2.37-1.92,1.55.2,2.19,1.25,2.01,2.76-.16,1.38-1.2,1.8-2.21,2.04Z"/>
      <path class="cls-1" d="m183.03,2.7c-.18,1.4-.85,2.51-2.36,2.59-1.37.07-2.06-1.01-2.18-2.23-.15-1.51.68-2.56,2.22-2.57,1.29-.01,2,.95,2.31,2.21Z"/>
      <path class="cls-1" d="m203.29,87.76c1.3.17,2.17.85,2.23,2.18.07,1.42-.42,2.65-2.07,2.69-1.31.04-2.19-.9-2.33-2.11-.18-1.49.79-2.35,2.17-2.76Z"/>
      <path class="cls-1" d="m130.98,90.47c-.09,1.35-.62,2.39-1.97,2.59-1.35.19-2.32-.55-2.46-1.89-.15-1.43.37-2.65,2.07-2.75,1.43-.09,2.01.92,2.36,2.06Z"/>
      <path class="cls-1" d="m121.33,88.43c1.27.3,2.11,1.01,1.98,2.43-.13,1.56-1.02,2.45-2.6,2.2-1.36-.21-1.95-1.27-1.77-2.58.18-1.29.96-2.09,2.39-2.05Z"/>
      <path class="cls-1" d="m175.75,90.49c-.2,1.42-.74,2.5-2.43,2.38-1.39-.1-2.15-1.05-2.14-2.25,0-1.44.89-2.39,2.47-2.36,1.43.03,1.97.95,2.1,2.23Z"/>
      <path class="cls-1" d="m98.56,93.36c-1.49-.3-2.26-1.32-2.11-2.74.13-1.22.99-2.19,2.33-2.06,1.47.15,2.33,1.18,2.15,2.68-.15,1.25-1.01,2.01-2.36,2.12Z"/>
      <path class="cls-1" d="m167.96,3.04c-.34,1.2-.86,2.32-2.24,2.29-1.57-.03-2.3-1.16-2.27-2.6.03-1.28.83-2.25,2.16-2.22,1.52.03,2.25,1.07,2.35,2.53Z"/>
      <path class="cls-1" d="m12.48,11.74c-.23,1.94-1.58,1.95-2.94,1.83-1.43-.12-2.1-1.08-1.95-2.39.17-1.54,1.29-2.29,2.78-2.15,1.62.15,2.09,1.34,2.11,2.71Z"/>
      <path class="cls-1" d="m71.18,91.08c-.15,1.16-.62,2.3-2.03,2.31-1.49,0-2.47-.85-2.41-2.47.05-1.38.89-2.24,2.22-2.18,1.26.06,2.14.85,2.22,2.35Z"/>
      <path class="cls-1" d="m2.32,30.6c1.32.12,2.34.69,2.44,2.01.11,1.48-.74,2.53-2.26,2.54-1.45,0-2.46-.86-2.4-2.42.05-1.34,1.03-1.93,2.22-2.13Z"/>
      <path class="cls-1" d="m33.54,3.9c-.21,1.39-.91,2.36-2.25,2.32-1.6-.05-2.29-1.19-2.12-2.7.14-1.33.99-2.14,2.37-1.96,1.33.17,1.98,1.08,2,2.34Z"/>
      <path class="cls-1" d="m46.94,93.59c-1.57.07-2.47-.6-2.67-1.88-.24-1.5.63-2.51,2.04-2.78,1.36-.26,2.18.6,2.32,1.91.15,1.4-.23,2.57-1.69,2.75Z"/>
      <path class="cls-1" d="m247.24,58.86c1.61.23,2.4,1.12,2.22,2.65-.15,1.31-.98,2.15-2.35,1.92-1.36-.24-2.46-1-2.26-2.62.17-1.37,1.22-1.82,2.39-1.95Z"/>
      <path class="cls-1" d="m235.46,90.06c-.1,1.35-.66,2.51-2.3,2.45-1.34-.05-2.11-1.04-2.13-2.32-.02-1.48.86-2.56,2.35-2.57,1.32-.01,1.99,1,2.07,2.43Z"/>
      <path class="cls-1" d="m249.64,75.85c-.14,1.64-1.09,2.42-2.3,2.41-1.37-.02-2.59-.76-2.44-2.41.14-1.53,1.23-2.32,2.7-2.17,1.31.13,1.92,1.13,2.04,2.17Z"/>
      <path class="cls-1" d="m218.18,87.63c1.78.37,2.5,1.41,2.38,2.86-.1,1.24-.78,2.22-2.24,2.13-1.38-.08-2.09-1.09-2.21-2.28-.16-1.55,1.04-2.2,2.07-2.71Z"/>
      <path class="cls-1" d="m208.59,90.4c.19-1.68.92-2.66,2.21-2.62,1.46.05,2.37,1.07,2.23,2.61-.11,1.24-.79,2.28-2.16,2.25-1.58-.03-2.15-1.17-2.28-2.24Z"/>
      <path class="cls-1" d="m41.08,3.9c-.12,1.25-.75,2.19-2.12,2.32-1.41.13-2.27-.76-2.35-2.07-.09-1.46.57-2.63,2.27-2.61,1.42.02,2.03.97,2.2,2.36Z"/>
      <path class="cls-1" d="m46.03,1.5c1.35,0,2.21.68,2.38,2.02.2,1.58-.63,2.59-2.17,2.64-1.34.04-2.09-.88-2.18-2.23-.1-1.4.65-2.15,1.98-2.42Z"/>
      <path class="cls-1" d="m12.39,4.14c-.03,1.86-1.02,2.63-2.22,2.66-1.5.03-2.38-1-2.32-2.57.05-1.36.84-2.22,2.18-2.26,1.66-.04,2.16,1.18,2.35,2.17Z"/>
      <path class="cls-1" d="m63.43,3.24c-.08,1.84-.96,2.7-2.22,2.69-1.54,0-2.36-1.08-2.19-2.65.15-1.33.91-2.18,2.34-2.01,1.35.16,1.98,1.07,2.07,1.97Z"/>
      <path class="cls-1" d="m4.75,18c-.12,1.36-.89,2.27-2.46,2.23C.99,20.2.03,19.59,0,18.16c-.03-1.6.94-2.38,2.45-2.41,1.35-.03,2.14.73,2.3,2.26Z"/>
      <path class="cls-1" d="m85.68,3.48c-.14,1.47-.84,2.44-2.17,2.39-1.52-.06-2.35-1.18-2.2-2.65.13-1.28,1.07-2.06,2.41-1.96,1.4.1,1.93,1.06,1.95,2.22Z"/>
      <path class="cls-1" d="m135.52,1.02c1.43-.01,2.4.54,2.54,1.9.16,1.5-.57,2.54-2.15,2.62-1.39.07-2.1-.81-2.17-2.14-.07-1.31.47-2.21,1.78-2.38Z"/>
      <path class="cls-1" d="m128.2,5.58c-1.38-.19-2.04-1.1-2-2.36.05-1.53.96-2.37,2.54-2.14,1.38.2,1.9,1.19,1.76,2.48-.14,1.32-.96,2-2.3,2.02Z"/>
      <path class="cls-1" d="m247.22,29c1.35.17,2.21.87,2.13,2.28-.07,1.35-.91,2.25-2.24,2.23-1.52-.02-2.47-.95-2.34-2.55.11-1.44,1.15-1.91,2.45-1.96Z"/>
      <path class="cls-1" d="m115.58,3.41c-.12,1.27-.56,2.37-2.04,2.32-1.52-.05-2.45-.97-2.35-2.54.09-1.33.93-2.11,2.3-2.09,1.48.02,1.93,1.05,2.08,2.31Z"/>
      <path class="cls-1" d="m2.6,23.15c1.37.31,2.41,1.01,2.21,2.58-.17,1.3-1.11,1.97-2.44,1.88-1.28-.09-2.26-.73-2.27-2.09-.02-1.54.98-2.27,2.51-2.38Z"/>
      <path class="cls-1" d="m247.3,40.95c-1.35-.1-2.46-.52-2.51-1.97-.05-1.53.83-2.51,2.39-2.51,1.35,0,2.18.83,2.19,2.21.01,1.37-.78,2.12-2.07,2.27Z"/>
      <path class="cls-1" d="m93.31,3.33c.05,1.41-.65,2.31-1.96,2.45-1.3.15-2.25-.51-2.4-1.92-.16-1.52.46-2.63,2.08-2.69,1.36-.05,2.02.92,2.27,2.15Z"/>
      <path class="cls-1" d="m249.49,68.53c-.11,1.59-1,2.3-2.54,2.23-1.37-.07-2.17-.87-2.1-2.2.08-1.49,1-2.36,2.54-2.29,1.39.06,1.97.97,2.09,2.27Z"/>
      <path class="cls-1" d="m78.27,3.42c-.04,1.42-.72,2.32-2.03,2.42-1.53.11-2.41-.74-2.42-2.31,0-1.3.59-2.23,1.97-2.33,1.59-.11,2.31.83,2.47,2.22Z"/>
      <path class="cls-1" d="m5.05,62.26c-.17,1.45-.75,2.47-2.08,2.56-1.36.09-2.71-.35-2.75-2.02-.04-1.52.99-2.38,2.45-2.45,1.35-.06,1.95.96,2.39,1.91Z"/>
      <path class="cls-1" d="m5.25,4.27c0,1.43-.83,2.15-2.14,2.22-1.35.07-2.23-.64-2.24-2.06-.01-1.37.8-2.2,2.11-2.28,1.39-.09,2.07.81,2.26,2.12Z"/>
      <path class="cls-1" d="m55.84,3.41c-.14,1.54-.63,2.56-2.06,2.59-1.32.03-2.28-.76-2.36-2.06-.1-1.47.72-2.55,2.28-2.57,1.38-.01,1.9,1.07,2.14,2.04Z"/>
      <path class="cls-1" d="m31.39,88.98c1.34.08,2.18.75,2.23,2.12.05,1.28-.41,2.3-1.86,2.43-1.63.16-2.46-.81-2.5-2.28-.04-1.31.78-2.11,2.13-2.27Z"/>
      <path class="cls-1" d="m249.37,16.13c-.04,1.33-.57,2.33-1.91,2.48-1.44.16-2.64-.52-2.8-2.01-.17-1.52.8-2.37,2.35-2.39,1.31-.01,2.16.6,2.36,1.92Z"/>
      <path class="cls-1" d="m51.72,91.52c.04-1.5.73-2.53,2.27-2.58,1.3-.04,2.17.79,2.27,2.1.12,1.53-.72,2.48-2.24,2.54-1.31.05-2.11-.73-2.3-2.06Z"/>
      <path class="cls-1" d="m63.66,90.99c-.03,1.28-.46,2.31-1.88,2.48-1.34.16-2.33-.5-2.46-1.85-.14-1.44.47-2.65,2.09-2.74,1.32-.07,2.16.7,2.25,2.11Z"/>
      <path class="cls-1" d="m135.99,88.32c1.35.07,2.16.76,2.25,2.12.11,1.6-.75,2.5-2.3,2.47-1.36-.02-2.08-.93-2.05-2.29.03-1.33.73-2.14,2.1-2.31Z"/>
      <path class="cls-1" d="m232.94,0c1.28.1,2.23.62,2.3,2.03.07,1.48-.6,2.6-2.15,2.65-1.56.06-2.3-.98-2.29-2.49.01-1.37.8-2.07,2.14-2.19Z"/>
      <path class="cls-1" d="m143.84,92.89c-1.52.06-2.36-.66-2.58-1.92-.27-1.59.7-2.46,2.15-2.61,1.41-.14,2.06.84,2.15,2.13.09,1.3-.46,2.21-1.71,2.39Z"/>
      <path class="cls-1" d="m249.46,53.65c-.17,1.33-.89,2.16-2.26,2.17-1.33.01-2.3-.65-2.34-2.04-.05-1.58.91-2.43,2.46-2.39,1.37.04,2.06.91,2.15,2.26Z"/>
      <path class="cls-1" d="m195.75,92.7c-1.32-.21-1.99-1.05-1.97-2.41.02-1.38.78-2.33,2.12-2.29,1.52.05,2.42,1.08,2.28,2.64-.12,1.32-.97,2.08-2.43,2.05Z"/>
      <path class="cls-1" d="m5.34,11.81c-.18,1.35-1.03,1.93-2.37,1.82-1.31-.11-2.2-.78-2.14-2.19.06-1.32.89-2.26,2.16-2.22,1.44.04,2.33.98,2.34,2.59Z"/>
      <path class="cls-1" d="m168.21,90.37c-.2,1.47-.88,2.41-2.22,2.42-1.62.02-2.31-1.07-2.2-2.58.1-1.37.93-2.1,2.32-1.99,1.37.11,2.01.98,2.1,2.15Z"/>
      <path class="cls-1" d="m123.09,3.13c-.15,1.26-.61,2.31-2.05,2.4-1.41.09-2.21-.75-2.32-2.08-.11-1.33.54-2.28,1.98-2.37,1.4-.09,2.12.74,2.4,2.04Z"/>
      <path class="cls-1" d="m247.26,44.01c1.35.15,2.22.84,2.13,2.26-.09,1.33-.94,2.23-2.26,2.22-1.53,0-2.43-.99-2.33-2.55.09-1.46,1.18-1.87,2.45-1.93Z"/>
      <path class="cls-1" d="m18.87,91.33c-.23,1.23-.64,2.32-2.15,2.29-1.62-.03-2.43-1.06-2.31-2.55.1-1.27.96-2.13,2.37-2.07,1.46.06,1.97,1.03,2.09,2.33Z"/>
      <path class="cls-1" d="m190.51,90.58c-.2,1.27-.77,2.25-2.19,2.15-1.56-.1-2.33-1.1-2.09-2.63.2-1.28,1.03-2.04,2.42-1.92,1.46.12,1.88,1.11,1.87,2.4Z"/>
      <path class="cls-1" d="m181.09,92.75c-1.39-.02-2.15-.77-2.3-2.09-.15-1.34.46-2.33,1.81-2.5,1.55-.19,2.5.7,2.54,2.25.04,1.3-.67,2.17-2.05,2.34Z"/>
      <path class="cls-1" d="m151.08,92.95c-1.56-.23-2.31-1.05-2.24-2.39.08-1.54.97-2.45,2.57-2.23,1.38.18,1.95,1.17,1.81,2.51-.15,1.36-1,2-2.14,2.11Z"/>
      <path class="cls-1" d="m220.3,2.52c-.12,1.33-.84,2.31-2.16,2.3-1.57,0-2.33-1.11-2.22-2.65.09-1.38.9-2.15,2.31-2.03,1.38.12,2.01,1.02,2.07,2.38Z"/>
      <path class="cls-1" d="m26.1,3.96c-.19,1.21-.63,2.31-2.05,2.36-1.6.05-2.38-.96-2.31-2.48.07-1.28.74-2.22,2.18-2.16,1.41.05,1.94,1.04,2.17,2.29Z"/>
      <path class="cls-1" d="m26.31,91.17c-.07,1.29-.62,2.23-1.99,2.35-1.64.14-2.33-.89-2.37-2.35-.03-1.37.84-2.15,2.14-2.14,1.28.01,2.09.79,2.21,2.14Z"/>
      <path class="cls-1" d="m16.66,6.33c-1.46-.04-2.27-.83-2.39-2.14-.13-1.35.61-2.3,1.99-2.39,1.37-.09,2.23.69,2.29,2.09.05,1.31-.48,2.27-1.89,2.44Z"/>
      <path class="cls-1" d="m150.81,5.45c-1.46-.09-2.09-.96-2.14-2.23-.05-1.27.47-2.27,1.9-2.35,1.3-.07,2.3.57,2.35,1.91.06,1.39-.61,2.46-2.11,2.67Z"/>
      <path class="cls-1" d="m145.38,3.39c-.21,1.29-.88,2.19-2.32,2.04-1.38-.15-2.05-1.12-1.98-2.45.08-1.39.93-2.15,2.33-2.03,1.4.12,2.03,1.02,1.97,2.44Z"/>
      <path class="cls-1" d="m100.59,3.27c-.03,1.35-.62,2.29-2.03,2.33-1.37.05-2.22-.78-2.28-2.11-.06-1.32.66-2.25,2.06-2.33,1.42-.08,2.1.76,2.26,2.11Z"/>
      <path class="cls-1" d="m105.89,5.7c-1.42-.2-2.09-1.02-2-2.41.09-1.41.94-2.17,2.3-2.08,1.39.09,2.11,1.05,2.02,2.39-.09,1.36-.98,2.05-2.32,2.11Z"/>
      <path class="cls-1" d="m38.94,93.65c-1.31-.21-2.11-1.01-2.01-2.35.11-1.5,1.01-2.46,2.6-2.21,1.35.21,1.92,1.22,1.79,2.55-.14,1.37-.95,2.05-2.38,2.01Z"/>
    </g>
  </g>
</svg>