<?xml version="1.0" encoding="UTF-8"?>
<svg id="Layer_2" data-name="Layer 2" xmlns="http://www.w3.org/2000/svg" viewBox="0 0 262.92 106.68">
  <defs>
    <style>
      .cls-1 {
        fill: #fff;
      }
    </style>
  </defs>
  <g id="Layer_1-2" data-name="Layer 1">
    <path class="cls-1" d="m262.5,6.8c-.11,3.47-1.32,5.55-3.46,7.12-4.18,3.05-4.29,6.91-.28,9.85,5.07,3.72,4.84,9.59-.52,12.98-3.03,1.92-3.09,6.86-.11,8.83,6.31,4.17,6.29,9.7-.06,13.78-2.54,1.63-2.6,6.64-.11,8.44,6.59,4.77,6.6,9.62.03,14.1-2.87,1.96-2.69,6.66.4,8.38,3.39,1.88,4.68,4.84,4.16,8.46-.46,3.21-2.64,5.23-5.8,5.86-3.76.75-6.52-.79-8.44-4.08-1.69-2.89-7.03-2.97-8.95-.2-4.41,6.34-9.71,6.27-13.7-.19-1.35-2.19-7.02-2.31-8.56-.18-5.08,6.99-9.29,6.99-14.01.02-1.33-1.96-6.96-1.89-8.48.11-5.39,7.1-9.11,7.13-14.04.13-1.42-2.02-6.76-1.91-8.4.17-5.43,6.91-8.53,6.85-14-.26-1.52-1.97-7.08-1.35-8.71.96-4.41,6.3-9.45,6.17-13.73-.37-1.44-2.19-6.99-2.01-8.49.27-4.33,6.62-9.81,6.74-14.01.31-1.65-2.53-6.6-2.45-8.48.14-4.56,6.28-9.36,6.34-13.93.17-2.26-3.05-6.65-2.87-8.85.37-3.71,5.48-9.87,5.47-13.18-.03-1.71-2.84-7.04-2.98-8.93-.23-4.44,6.46-9.55,6.55-13.79.24-1.67-2.48-6.68-2.53-8.5-.09-4.82,6.49-9.08,6.44-14.1-.18-1.89-2.49-6.84-2.26-8.33.56-1.84,3.48-4.71,4.75-8.38,4.29-3.28-.42-5.26-2.57-5.88-5.74-.73-3.75.89-6.51,4.09-8.47,2.97-1.83,2.95-6.95,0-8.9-6.13-4.06-6.13-9.46,0-13.49,2.64-1.74,2.59-6.94-.08-8.69-6.55-4.29-6.48-9.43.18-13.97,2.21-1.5,2.23-6.71.04-8.24-6.82-4.76-6.82-9.23.01-14.29,2.67-1.97,2.49-6.65-.44-8.18C1.2,14.73-.05,11.81.44,8.16c.41-3.05,2.48-5.01,5.38-5.78,3.52-.94,6.3.45,8.39,3.36,2.83,3.93,7.3,3.95,9.93.07,3.48-5.14,9.56-4.98,12.91.34,2.02,3.22,7.02,3.27,9.13.09,3.96-6,9.8-5.89,13.49.23,1.56,2.59,7.06,2.6,8.77.02C72.68.07,78.08,0,82.08,6.3c1.58,2.49,7.01,2.38,8.85-.18,4.58-6.39,9.33-6.35,13.69.1,1.53,2.26,6.97,2.23,8.67-.05,4.98-6.7,9.4-6.7,13.89,0,1.51,2.26,6.92,2.15,8.54-.18,4.6-6.61,9.52-6.6,13.91.03,1.48,2.23,7.02,2.1,8.65-.21,4.73-6.66,9.07-6.67,13.87-.04,1.57,2.17,6.96,1.81,8.55-.57,4.26-6.38,9.41-6.44,13.82-.16,1.85,2.63,6.87,2.45,8.72-.31,3.99-5.94,9.79-5.94,13.76.02,1.93,2.9,6.91,2.85,8.84-.09,3.68-5.58,9.71-5.74,13.2-.35,2.3,3.56,7.11,3.49,9.22-.16,2.03-3.52,5.05-4.86,8.91-3.8,3.55.98,5.07,3.7,5.35,6.45ZM9.24,87.39c-.02,2.32-.05,4.42,2.75,5.34,1.12.37,2.04,1.64,2.82,2.67,2.69,3.55,6.7,3.44,9.28-.35,3.51-5.15,9.64-5.09,13.07.11,2.56,3.9,6.8,3.83,9.45-.14,3.47-5.2,9.61-5.11,12.94.19,2.21,3.52,7.15,3.49,9.22-.06,3.22-5.51,9.71-5.7,13.22-.38,2.56,3.88,6.57,3.78,9.32-.22,3.49-5.08,9.74-5.01,13.07.15,2.56,3.98,6.74,3.97,9.26-.02,3.28-5.19,9.67-5.28,13.05-.2,2.56,3.85,7.15,3.85,9.4,0,3.13-5.34,9.48-5.57,12.97-.47,2.69,3.93,7.23,3.87,9.8-.13,3.09-4.81,9.16-4.99,12.46-.36,3.11,4.36,7.13,4.4,10.01.11,3.31-4.94,9.49-4.87,12.68.15,2.47,3.87,7.2,3.94,9.55.15,3.41-5.52,9.7-5.51,13.08.03,2.15,3.53,7.16,3.51,9.31-.04,3.39-5.61,9.62-5.76,13.13-.31,2.36,3.66,7.19,3.62,9.51-.13.71-1.15,1.61-2.06,2.71-2.83,3.64-2.55,3.53-6.67-.21-9.16-5.19-3.46-5.08-10.17.23-13.47,3.86-2.4,3.84-6.49-.03-9-5.48-3.55-5.49-9.81-.03-13.2,3.7-2.3,3.64-6.79-.13-9.14-5.43-3.39-5.46-9.73-.05-13.23,3.86-2.5,3.8-6.88-.06-9.54-.95-.65-1.85-1.46-2.53-2.38-2.8-3.75-6.94-3.67-9.57.25-3.33,4.96-9.71,5.11-12.78.28-2.6-4.08-6.83-4.09-9.65-.03-3.35,4.83-9.69,4.84-12.88.04-2.74-4.12-6.92-4.12-9.69,0-3.33,4.94-9.44,4.95-12.79.02-2.72-4.01-7.02-3.93-9.64.18-3,4.7-9.49,5-12.54.6-3.26-4.71-7.05-4.76-10.15-.15-3.17,4.72-9.26,4.73-12.43,0-2.72-4.06-7.22-4.08-9.83-.06-3.23,4.97-9.48,5.04-12.79.13-2.56-3.79-7.14-3.83-9.6-.07-3.43,5.23-9.55,5.23-12.95,0-2.27-3.49-7.05-3.5-9.36-.02-3.67,5.52-9.69,5.55-13.19.07-2.2-3.46-7.06-3.36-9.32.19-3.35,5.25-9.49,5.37-12.99.25-2.62-3.84-6.96-3.76-9.51.18-3.36,5.17-9.65,5.13-12.97-.09-2.29-3.6-7.09-3.73-9.37-.2-.81,1.26-1.73,2.31-2.98,3.16-3.51,2.39-3.46,6.66.04,8.96,5.39,3.55,5.42,9.72.06,13.32-3.74,2.51-3.72,6.76.03,9.22,5.46,3.58,5.36,9.7-.22,13.17-3.35,2.08-3.35,7.04,0,9.07,5.71,3.46,5.84,9.79.05,13.27-1.84,1.11-2.45,2.3-2.23,4.12ZM137.93,8.54c.14,3.21,1.81,5.05,4.91,5.04,2.93,0,4.63-1.89,4.7-4.74.08-3.13-1.69-4.9-4.89-4.91-3.05,0-4.41,1.82-4.72,4.61Zm76.93,88.91c-.1-3.26-2.1-4.84-4.76-4.9-2.99-.06-4.93,1.88-4.88,5.01.05,2.93,1.84,4.6,4.74,4.68,3.26.09,4.66-1.93,4.89-4.79ZM98.43,13.93c2.52-.41,4.24-2.04,4.16-4.89-.09-3.01-1.82-4.99-4.97-4.82-2.84.16-4.55,2.01-4.51,4.88.04,3.11,1.89,4.7,5.32,4.84ZM53.06,4.61c-2.81.1-4.71,1.64-4.87,4.72-.16,2.92,1.63,4.75,4.38,4.99,2.81.25,4.81-1.38,5.07-4.25.26-2.95-1.08-5.04-4.58-5.46Zm201.74,97.36c3.07-.16,5.08-1.56,5.24-4.7.15-2.98-1.77-4.7-4.49-4.84-2.94-.15-5.12,1.58-5.22,4.65-.1,2.81,1.67,4.48,4.47,4.89Zm-62.39-4.03c-.2-3.51-1.99-5.31-5.04-5.17-2.76.13-4.58,1.81-4.55,4.84.04,3.25,2.02,4.93,4.98,4.85,2.79-.08,4.42-1.96,4.6-4.53Zm40.16,4.24c3.09-.24,4.82-2.07,4.76-5.08-.06-2.83-1.93-4.71-4.76-4.68-3.03.04-4.77,1.91-4.75,5.08.03,3.06,1.85,4.38,4.74,4.67Zm-67.4-9.25c-3.28.19-4.9,2.13-4.83,5.11.06,2.85,1.92,4.64,4.82,4.59,3.11-.06,4.79-1.91,4.71-5.08-.08-3.03-1.89-4.38-4.7-4.61ZM120.32,4.06c-3.05.14-4.89,1.89-4.87,4.89.02,2.75,1.72,4.65,4.65,4.76,2.93.1,4.67-1.52,4.84-4.43.18-3.08-1.32-4.93-4.62-5.22Zm107.49,4.49c.3,2.37,1.59,4.31,4.61,4.32,3.18,0,4.93-1.94,4.93-4.94,0-3.08-1.91-4.81-5.08-4.66-3.01.14-4.37,1.94-4.45,5.28Zm27.32-5.75c-2.91.17-4.92,1.47-5.05,4.47-.14,3.21,1.89,5.01,4.87,5.08,2.83.07,4.69-1.68,4.76-4.67.07-3.04-1.82-4.44-4.57-4.88Zm-117.21,95.14c.16,2.95,1.63,4.77,4.61,4.83,3.22.06,4.9-1.95,4.88-4.98-.02-2.92-1.84-4.66-4.8-4.57-2.9.08-4.53,1.77-4.7,4.73Zm-124.88,1.15c-.26-2.87-1.81-4.72-4.68-4.73-2.81-.01-4.82,1.7-4.81,4.58.01,2.94,1.63,4.96,4.92,4.86,2.99-.09,4.47-1.74,4.57-4.7ZM205.33,8.24c.34,2.73,1.83,4.63,4.74,4.57,3.08-.06,4.82-1.9,4.64-5.09-.17-2.95-1.83-4.54-4.82-4.39-2.97.15-4.38,1.93-4.55,4.92ZM57.77,98.39c-.55-2.27-1.69-4.44-4.75-4.28-2.79.15-4.78,1.77-4.7,4.68.08,2.94,1.7,4.97,4.96,4.82,2.98-.14,4.32-2,4.5-5.22Zm-44.76-21.87c-.38-2.85-2.01-4.55-4.93-4.51-2.98.04-4.71,1.91-4.64,4.77.07,2.89,2.08,4.7,4.89,4.61,2.75-.08,4.54-1.82,4.69-4.87ZM186.86,3.36c-2.31.26-3.99,1.92-3.93,4.8.07,2.82,1.7,4.72,4.66,4.7,3.15-.02,4.95-2.03,4.76-5.04-.17-2.68-1.78-4.59-5.49-4.45ZM3.1,9.55c.18,3.16,1.94,4.82,4.71,4.88,2.82.06,4.78-1.69,4.8-4.57.03-3-1.67-4.96-4.89-4.88-2.98.07-4.35,1.93-4.63,4.57Zm251.48,25.23c2.89-.04,4.7-1.57,4.9-4.47.21-2.98-1.64-4.82-4.47-4.92-2.75-.09-4.86,1.42-5.03,4.44-.16,3.02,1.64,4.52,4.6,4.94ZM80.12,9.08c-.16-2.69-1.71-4.53-4.58-4.65-2.92-.12-4.78,1.67-4.89,4.55-.11,3.04,1.51,5.06,4.77,5.05,3-.01,4.49-1.76,4.7-4.94Zm-44.9.67c-.26-2.96-1.59-4.81-4.64-4.87-3.05-.05-4.64,1.8-4.76,4.59-.13,3.1,1.75,5,4.83,5.03,3.02.03,4.24-2.11,4.57-4.76ZM165.01,3.7c-2.94.3-4.65,2.04-4.59,4.88.06,2.78,1.7,4.81,4.7,4.73,3.08-.08,4.93-1.91,4.78-5.08-.14-2.94-1.97-4.42-4.9-4.52Zm-67.25,90.01c-2.83.22-4.59,1.68-4.62,4.64-.03,3.17,1.78,4.9,4.87,4.85,2.95-.05,4.6-2,4.5-4.8-.1-2.72-1.7-4.55-4.76-4.69Zm155.91-23.5c-1.67.15-3.28,1.88-3.4,4.36-.13,2.8,1.59,4.82,4.52,4.9,2.78.08,4.87-1.36,4.96-4.4.1-3.24-1.84-4.72-6.09-4.86ZM12.88,31.98c-.47-2.48-1.65-4.62-4.62-4.69-2.74-.06-4.85,1.24-4.98,4.29-.13,2.94,1.5,4.73,4.4,4.86,2.82.13,4.58-1.42,5.21-4.46Zm13.07,67.4c.39,2.43,1.7,4.33,4.75,4.25,3-.08,4.59-1.89,4.48-4.79-.1-2.79-1.55-4.82-4.62-4.68-2.91.13-4.39,1.97-4.61,5.22Zm233.87-47.07c-.21-2.82-1.8-4.54-4.72-4.46-2.8.07-4.84,1.68-4.8,4.59.04,2.79,1.73,4.61,4.75,4.57,2.95-.03,4.52-1.63,4.77-4.7Zm-183.77,41.49c-3.27-.19-5.04,1.41-5.3,4.24-.29,3.08,1.41,5.07,4.55,5.22,2.65.12,4.62-1.35,4.86-4.03.26-2.93-1.01-5.12-4.1-5.43Zm48.86,4.16c-.26-2.21-1.45-4.21-4.49-4.27-2.9-.06-4.84,1.58-4.94,4.41-.1,2.94,1.49,5.05,4.74,5.02,2.89-.03,4.57-1.59,4.69-5.16ZM8.13,49.73c-3,.16-4.91,1.47-4.88,4.55.03,3.01,1.84,4.55,4.75,4.56,3.09.01,4.58-2.07,4.57-4.8-.01-2.64-1.74-4.23-4.43-4.31Z"/>
  </g>
</svg>