<?xml version="1.0" encoding="UTF-8"?>
<svg id="Layer_2" data-name="Layer 2" xmlns="http://www.w3.org/2000/svg" viewBox="0 0 267.2 133.54">
  <defs>
    <style>
      .cls-1 {
        fill: #fff;
      }
    </style>
  </defs>
  <g id="Layer_1-2" data-name="Layer 1">
    <path class="cls-1" d="m88.81,16.35c1.23-.51,3.36.16,1.77-2.84-1.34-2.52-1.18-5.99.37-8.72,1.03-1.82.6-2.54-1.14-2.4-15.94,1.31-31.89.41-47.84.55-7.04.06-14.07.35-21.13,0C9.1,2.36,1.3,11.95,1.69,23.66c.33,9.91-.05,19.89.26,29.84.02.49-.35.99-1.38,1.46C.37,50.9.02,46.84,0,42.78c-.03-7.78,0-15.56.25-23.33C.58,9.02,9,1.31,20.21,1.16c19.66-.26,39.32-.07,58.98.24,11.21.18,22.39-.6,33.63-.38,17.32.34,34.75,1.09,52.15-.8,8.49-.92,17.16,1.36,25.87,1.2,18.64-.34,37.3.29,55.93-.2,10.75-.28,20.49,8.55,20.3,21.18-.15,10.41-.09,20.82-.13,31.22,0,.8.41,1.79-1,2.31-1.15-1.49-.94-3.31-.77-4.91,1.1-10.11.03-20.23.24-30.34.21-10.24-8.95-18.08-19.08-17.85-12.02.27-24.06.51-36.08.29-11.7-.2-23.41,1.08-35.28-.71.47,2.74,2.24,2.66,3.99,2.66,21.88-.01,43.75-.03,65.63-.03,12.11,0,18.29,6.39,18.48,18.44.16,10.4.83,20.79.33,31.2-.04.81-.62,2.21.44,2.27,4.46.21,3.19,3.62,3.2,5.86.07,16.84.13,33.69-.17,50.53-.22,11.99-8.72,19.73-20.79,19.65-11.15-.07-22.35-.72-33.45.04-21.81,1.49-43.58-1.09-65.36.05-.57.03-1.14-.14-1.72-1.12h48.47c-.94-3.3-3.26-2.52-5.21-2.53-14.09-.07-28.17-.12-42.26-.2-.49,0-1.14.22-1.75-1.42h46.62c0-.57,0-1.14-.01-1.71h-46.54c0-.46,0-.92,0-1.38,7.72-.96,15.52.7,23.23-.09,7.57-.78,15.36,1.52,22.8-.75-.02-.54-.04-1.08-.06-1.62-7.76,0-15.53-.01-23.29,0-6.57.01-13.16.38-19.7-.03-3.91-.25-4.83,1.06-4.72,4.6.19,6.41.05,6.27-6.18,6.3-22.55.11-45.11.12-67.66.35-17.27.18-34.6-.21-51.89-.71-8.76-.26-16.59-8.35-16.95-17.88-.46-12-.11-24.04-.11-36.55,2.41,1.84,1.81,4.03,1.57,5.82-1.28,9.8.2,19.6-.11,29.42-.34,10.57,9.23,18.75,20.23,18.26,13.72-.6,27.41-.59,41.11.31,7.85.51,13.02-5.4,11.26-12.39-1.12-4.44-6.6-7.26-11.3-5.81-4.59,1.41-6.72,5.91-4.99,10.56,1.24,3.33,5.65,4.93,9.24,3.34,2.73-1.21,3.95-4.9,2.72-7.86-.88-2.11-2.62-2.78-4.59-2.69-1.91.09-3.17,1.33-3.79,3.19-.48,1.46.06,2.59,1.06,3.55.8.77,1.82,1.14,2.81.56.56-.32,1.07-1.02,1.23-1.64.16-.61-.46-.96-1.13-.99-.62-.03-1.76.5-1.38-.83.25-.87,1.17-1.32,2.14-.92,1.01.42,1.67,1.18,1.73,2.34.08,1.71-.84,2.78-2.35,3.32-2.1.75-3.9-.03-4.97-1.77-1.21-1.98-1.29-4.21.34-6.13,1.98-2.34,4.65-2.54,7.26-1.65,2.65.91,3.68,3.28,3.72,5.94.06,4.44-3.86,8.2-8.3,7.77-13-1.27-26.03-.65-39.05-.57-13.93.09-20.29-5.73-20.71-19.65-.29-9.68-.15-19.37-.21-29.06-.01-1.66.62-3.55-2.22-3.78-1.84-.15-1.37-1.99-1.39-3.22-.1-4.4-.22-8.81-.08-13.21.06-1.88-.91-4.69,2.96-4.44,1.57.1.76-1.57.76-2.45-.02-10.42-.12-20.84-.12-31.26,0-9.66,6.26-17.02,15.81-17.17,22.6-.36,45.21-.15,67.82-.15.26,0,.52.23.91.41-.74,1.98-2.45,1.19-3.7,1.2-20.11.17-40.22.24-60.32-.4-12.82-.41-19.58,6.27-18.94,19.03.1,2.06,0,4.09-.03,6.14-.13,8.17-.05,16.34-.05,24.94,2.95-1.11,2.12-3.06,2.14-4.36.15-9.1.08-18.2.15-27.3.09-10.97,5.22-16.15,16.23-16.21,20.7-.09,41.41-.08,62.11-.09.78,0,1.74-.39,2.42.99-1.68,1.11-3.6.82-5.36.82-18.79.02-37.59-.04-56.38-.05-2.34,0-4.72-.05-7.03.3-6.13.93-10.13,5.2-10.3,11.33-.3,11,.26,22.01-.55,33-.06.86-.03,1.51.95,1.47,1.64-.07,1.17-1.42,1.18-2.31.11-8.07.21-16.15.22-24.22,0-15.18,3.14-18.04,18.47-17.81,17.62.26,35.24.13,52.86.22,1.95,0,3.99-.45,6.33.6-1.58,1.6-3.24,1.22-4.69,1.21-19.38-.09-38.77-.13-58.15-.38-10.03-.13-13.36,3.06-13.22,12.9.14,9.8.03,19.61.03,29.61,2.74-.52,2.07-2.62,2.08-3.88.04-8.49-.21-16.99-.2-25.48.01-8.88,2.7-11.41,11.66-11.38,19.68.07,39.35.12,59.03.2,1.26,0,2.68-.5,3.69.81-1.4,1.58-3.3.96-4.97.97-19.67.13-39.34.35-59.01-.48-5.67-.24-8.77,2.06-8.8,6.84-.07,9.97.11,19.94.25,29.91.01.89-.52,2.47.99,2.46,2.15,0,.88-1.71.88-2.65-.02-9.21-.27-18.43-.12-27.63.08-5.23,1.5-6.47,6.72-6.5,20.12-.09,40.23-.09,60.35-.07.93,0,2.4-.66,2.83,1.32-.92.12-1.75.31-2.58.31-20.26.06-40.53.2-60.79.06-3.87-.03-5.2,1.15-5.16,4.99.15,18.32.12,36.65.15,54.97.01,9.7,0,19.4,0,29.1-.53.01-1.06.03-1.6.04,0-4.57-.02-9.14,0-13.71.05-11.69.08-23.39.21-35.08.02-2.27-.78-3.36-3.08-3.01-3.38.51-6.75.2-10.1-.17-2.86-.32-3.72,1.08-3.53,3.55.27,3.52.45,7-.12,10.53-.27,1.66.42,3.64,2.59,3.11,3.58-.88,8.4,2.45,10.62-1.94,1.24-2.45.22-6.05.17-9.13-.02-.94-.49-1.51-1.52-1.83-5.25-1.65-7.89.19-7.91,5.65,0,1.11-.55,2.67.9,3.04,1.35.35,2.96.27,4.32-.11,1.42-.39.98-1.94,1.03-3.06.04-.94-.27-1.83-1.4-1.83-1.47,0-1.01.98-.84,1.83.11.54-.33.79-.77.66-.37-.1-.87-.39-.95-.69-.32-1.13-.65-2.46.57-3.18,1.16-.69,2.86-.93,3.71.07,1.52,1.81.83,4.2.71,6.35-.1,1.8-1.71,1.84-3,1.84-1.99,0-4.85.55-5.52-1.48-1.04-3.15-1.07-6.87.13-9.93.76-1.94,3.74-.82,5.72-.84,6.38-.04,6.32.02,6.31,6.48-.02,14.21-.07,28.43.11,42.64.07,5.82,2.11,7.49,7.9,7.44,8.07-.07,16.14-.17,24.22-.22,2.35-.02,4.7.15,7.04.1.98-.02,2.31-.2,2.18-1.56-.11-1.14-1.32-.93-2.14-.84-10.09,1.02-20.21-.08-30.31.47-2.11.12-4.35.05-6.34-3.26,2.64,1.92,4.66,1.51,6.63,1.62,18.28.95,36.58-2.2,54.86.14.43.05.88-.07,1.32-.07,11.73-.09,23.46-.22,35.19-.24,19.06-.03,38.12,0,57.18.05,9.83.03,19.69-1.12,29.44-.61,10.86.58,21.69.5,32.53.49,12.31-.02,12.1-.13,11.24-12.68-.48-6.99-.09-14.04-.09-21.49,1.86.94,1.52,1.95,1.53,2.74.08,8.65.23,17.3.12,25.96-.07,6.01-1.61,7.34-7.79,7.37-6.01.03-12.04-.25-18.04,0-7.06.3-14.02-1.13-21.05-.79-5.49.26-9.74,5.46-9.16,10.85.52,4.88,4.81,8.14,10.12,7.5,3.1-.37,5.63-1.85,6.56-5.05.86-2.98.64-6.02-1.83-8.1-2.26-1.91-5.07-2.14-7.86-.73-2.7,1.37-3,3.83-2.75,6.37.24,2.32,1.78,3.67,4.09,3.92,2.39.25,3.98-.97,4.57-3.22.45-1.7-.07-3.2-1.84-4-1.32-.6-2.32-.09-3.02.98-.54.83.09,1.59.8,1.53.99-.09,1.98-.28,1.48,1.05-.39,1.03-1.52,1.32-2.59.54-1.25-.91-1.57-2.16-.94-3.49.76-1.6,2.12-2.47,3.94-2.11,2.7.53,3.99,2.22,3.88,5.01-.13,3.25-2.17,4.75-5.01,5.15-2.42.34-4.64-.3-6.02-2.69-1.46-2.53-1.4-5.02-.02-7.52,1.59-2.85,4.07-4.19,7.29-3.93,13.46,1.06,26.93.62,40.39.28,5.01-.13,6.9-2.22,6.87-7.06-.06-8.77-.07-17.54-.27-26.31-.05-2.19,1.04-5.19-2.83-5.76-.93-.14-.71-1.45-.71-2.32.03-15.66-.06-31.33.16-46.99.09-6.94.04-7.36-6.77-7.36-31.96.02-63.93.08-95.89.11-14.8.01-29.6-.27-44.39.75-3.52.24-7.04-.14-11.35-1.28,4.02-1.77,7.18-.1,10.31-.49,5.27-.66,9.55-5.44,9.16-10.56-.38-4.98-4.88-8.5-10.31-7.88-3.33.38-5.8,2.21-6.68,5.5-.79,2.98-.44,6,2.31,7.93,2.42,1.69,5.15,2.08,7.85.37,2.6-1.65,3.5-5.67,1.75-8.13-1.63-2.29-3.79-2.61-6.17-1.31-1.82.99-2.23,2.67-1.65,4.54.44,1.43,1.58,2.07,3.06,2,.76-.04,1.46-.38,1.75-1.13.36-.92-.24-1.44-1.03-1.51-.89-.08-1.5-.28-1.01-1.25.38-.75,1.2-.83,1.92-.51,1.41.63,1.93,1.81,1.53,3.25-.54,1.95-1.96,2.92-3.96,2.67-1.69-.21-3.14-1.16-3.78-2.71-.76-1.83-.63-3.78.77-5.38,1.92-2.2,4.3-3.11,7.1-1.87,2.85,1.26,4.37,3.65,3.94,6.68-.48,3.34-2.08,6.43-5.84,6.82-3.73.39-7.6.46-11.18-1.21Zm170.4,49.29c.41,1.85,1.42,3.64-1.01,4.46-1.32.45-3.28.55-3.7-1.27-.42-1.81-.46-3.86-.04-5.66.53-2.28,2.79-1.8,4.45-1.73,1.61.07,4.15-.83,4.47,1.54.42,3.14.05,6.4-.11,9.6-.05,1.08-1.05,1.28-1.99,1.28-2.64-.01-5.29-.02-7.93-.06-2.09-.03-2.77-1.23-2.64-3.18.11-1.61-.12-3.25.12-4.84.48-3.18-2.25-7.62,3.39-8.94.3-.07.37-1.6.37-2.45.05-9.38.07-18.76.08-28.15.01-9.33-3.19-12.27-12.46-12.27-20.41,0-40.82-.2-61.23-.37-1.6-.01-3.14-.26-4.23,1.18.37,1.1,1.17.89,1.86.89,21.58-.02,43.16-.07,64.74-.05,5.99,0,9.06,2.86,9.13,8.32.11,8.79.17,17.58.17,26.37,0,1.88-.29,3.76-.44,5.64-.98-1.5-1.19-2.91-1.21-4.33-.11-8.48-.09-16.97-.29-25.44-.19-8.05-1.1-8.77-9.02-8.73-20.11.1-40.22.34-60.33-.42-2.61-.1-5.73-.62-8.34,2.33,2.44.15,4.3.44,6.15.36,21.27-.99,42.55-.21,63.83-.45,3.71-.04,5.85,1.55,5.79,5.49-.02,1.32.1,2.64.1,3.96,0,14.52.04,29.05-.11,43.57-.03,3.03.75,4.45,3.95,3.98,3.06-.45,6.11-.54,9.19.04,2.28.43,3.6-.36,3.51-3.03-.13-3.66.06-7.32,0-10.98-.03-1.55-.58-2.76-2.5-3.01-9.46-1.27-11.5.67-10.54,10.24.03.29.03.59.05.88.05,1.02.59,1.48,1.59,1.76,5.5,1.54,7.92-.29,7.77-5.95-.03-1.12.45-2.53-1.18-2.89-1.43-.32-3.07-.47-4.25.42-1.18.89-.56,2.44-.45,3.71.05.64.53.95,1.23.91,1.88-.1-.11-2.22,2.02-2.71Zm-114.51,52.86c-.02-.49-.04-.98-.06-1.46,13.28,0,26.57,0,39.85,0,3.76,0,7.7.9,11.96-2.42-2.87,0-4.6-.03-6.32,0-9.29.16-18.58.42-27.87.48-11.56.08-23.13.05-34.69,0-2.33-.01-3.06.93-2.96,3.18.14,3.22.26,6.47-.08,9.66-.31,2.9.92,3.6,3.43,3.55,3.07-.05,6.13-.51,9.21.15,3.43.74,4.62-.69,4.59-4.25-.06-8.81.1-8.66-8.75-8.83-3.39-.07-4.68.94-4.64,4.38q.05,4.87,6.65,5.04c2.67.07,2.79-1.11,2.78-3.15,0-2.24-.7-3.38-3.07-2.95-.81.15-1.95-.12-2.18,1-.26,1.25.61,1.46,1.62,1.24.55-.12.9.1.84.6-.04.35-.36.89-.63.94-1.8.36-3.69.71-3.62-2.13.03-1.33-.03-2.97,1.83-2.89,2.16.1,5.09-1.47,6.3,1.23,1.04,2.3,1.3,5.19-.78,7.37-.89.93-10.45.32-10.62-.56-.69-3.47-.84-7.1.02-10.44.66-2.57,3.74-1.57,5.39-1.13,3.64.97,9.01-3.46,10.95,3.27.08.28,1.32.28,2.02.32,13.98.72,27.99-.41,41.97.57,1.7.12,3.34-.38,5.2-2.75h-48.36ZM105.32,19.97c6.49-.49,12.13-.46,17.76-.47,13.73,0,27.46-.56,41.19.43,3.79.27,6.91-1.05,9.42-3.84,2.98-3.31,2.85-9-.21-12.04-3.22-3.19-9.2-3.41-12.44-.44-2.65,2.43-2.54,5.47-1.73,8.56.77,2.89,3.28,3.63,5.79,3.96,3.63.48,6.3-1.88,6.48-5.41.16-3.35-1.18-5.43-4.71-5.5-2.45-.04-3.85,1.5-4.04,3.79-.15,1.74.76,3.19,2.75,3.32.64.04,1.52-.27,1.92-.73.48-.56.37-1.4-.55-1.73-.73-.26-2.1-.16-1.09-1.49.8-1.04,1.85-.6,2.7.13,1.2,1.03,1.26,2.34.44,3.55-1.07,1.58-2.56,2.44-4.54,1.62-2.06-.86-3.41-2.28-3.35-4.66.06-2.7,1.66-4.38,4.02-5.23,2.58-.93,4.98-.35,6.69,1.89,1.74,2.28,1.98,4.81.67,7.43-1.49,2.99-3.58,4.69-7.23,4.63-17.23-.29-34.47-.45-51.71-.48-2.53,0-5.54-.61-8.21,2.7Zm108.4-13.25c0-.09,0-.18,0-.27-10.84,0-21.68-.02-32.53.03-1.3,0-3.55-.88-3.52,1.23.03,1.72,2.18.79,3.34.79,20.67.03,41.34-.02,62.01-.01,11.08,0,17.39,6.51,16.95,16.72-.42,9.64-.31,19.31-.34,28.97,0,1.08-.75,3.14,1.45,2.86,1.68-.21.68-1.93.72-2.94.45-10.37-.74-20.72-.08-31.11.63-9.83-6.4-16.5-16.35-16.31-10.55.21-21.1.05-31.66.05Zm-36.12,5.02c.6.17,1.1.44,1.61.44,10.86.02,21.73,0,32.59,0,10.42,0,20.85-.07,31.27.03,9.2.08,13.3,4.49,13.14,13.66-.16,9.1-.21,18.19-.29,27.29,0,.88.06,1.76.13,2.64.07.87.57,1.39,1.45,1.17.71-.18.57-.83.53-1.43-.63-10.56.24-21.1.29-31.64.04-8.52-5.32-13.61-13.89-13.63-21-.05-41.99-.04-62.99,0-1.29,0-2.98-.66-3.83,1.48Zm31.73,119.74c.86.15,1.54.39,2.19.35,11.67-.66,23.34-.71,35.01-.41,9.86.25,18.76-7.59,18.83-17.61.07-10.97.64-21.96-.27-32.92-.08-.93.51-2.45-.93-2.5-1.94-.07-1.11,1.66-1.08,2.62.26,10.24.81,20.46.17,30.73-.67,10.75-6.67,17.21-17.38,17.39-10.55.17-21.1.15-31.65.25-1.74.02-3.88-.69-4.89,2.1ZM5.37,96.45c.46,4.7.35,9.68.18,14.67-.34,9.92,4.94,15.7,14.77,16.59,11.7,1.06,23.43-1,35.12.44.78.1,2.03.25,1.96-1.03-.05-.96-1.07-1.27-2-1.27-1.17,0-2.35.05-3.52.04-9.4-.03-18.8.1-28.19-.15-11.33-.3-16.42-6-16.23-17.28.17-9.68.07-19.37.05-29.05,0-.92.4-2.36-1.23-2.28-1.67.08-.93,1.4-.93,2.35.02,5.56.01,11.13.01,16.98Zm256.39-17.83c-.43-.04-.86-.08-1.29-.11-.67,1.85-.85,3.79-.85,5.79-.02,8.21-.1,16.42-.1,24.63,0,11.8-5.54,17.17-17.31,16.95-9.24-.18-18.49-.17-27.74-.18-1.01,0-2.73-.52-2.57,1.38.14,1.63,1.6.77,2.47.76,10.25-.04,20.51-.18,30.76-.17,10.09.01,16.19-5.24,16.53-15.35.38-11.22.09-22.46.09-33.68Zm-32.69,45.43s0,.05,0,.08c4.69,0,9.38-.2,14.06.04,9.17.48,14.77-4.76,14.79-13.79.02-9.94.29-19.88.43-29.83.01-1.03.96-2.68-.88-2.82-2.05-.16-1.09,1.73-1.11,2.63-.22,9.51-.34,19.02-.44,28.53-.1,9.27-4.1,13.41-13.35,13.42-9.52.02-19.04-.13-28.56-.21-.98,0-2.39-.35-2.3,1.15.1,1.62,1.52.79,2.43.79,4.98,0,9.95,0,14.93,0ZM10.51,77.43l-1.42.04c0,11.65-.42,23.31.15,34.93.36,7.33,5.01,11.29,12.02,11.54,10.54.37,21.08.44,31.63.6,1.19.02,3.13.66,2.98-1.36-.12-1.65-1.9-.74-2.93-.75-9.23-.1-18.47.14-27.68-.27-11.17-.5-14.41-4.21-14.3-15.27.07-7.32.31-14.65.25-21.97-.02-2.48.55-5.15-.72-7.49Zm199.23,41.33c.78,1.95,2.01,1.92,3.15,1.92,10.71,0,21.42.05,32.13-.09,5.72-.08,9.93-4.42,9.55-10.37-.61-9.54.64-19.05-.04-28.56-.08-1.07,1.31-3.09-.83-3.16-1.97-.07-1.15,2.04-1.16,3.13-.08,9.52.14,19.04-.07,28.55-.13,5.8-3.15,8.42-8.97,8.49-6.44.07-12.89.08-19.33.1-4.71.01-9.43,0-14.43,0Zm-153.98-.12c-4.4,0-8.81-.02-13.21,0-6.3.03-12.6.29-18.89.09-5.75-.19-9.03-3.19-8.91-8.18.24-10.38-.95-20.77.18-31.14.11-.99.57-2.27-1.06-2.27-1.5,0-1.28,1.29-1.28,2.29,0,10.4-.08,20.81.07,31.21.09,6.26,3.56,9.7,9.97,9.88,9.81.27,19.62.3,29.44.36,1.24,0,2.65.22,3.71-2.24ZM107.4,2.56c.59,2.56,2.24,2.59,3.9,2.57,1.9-.03,3.81-.14,5.71-.13,12.47.04,24.94.12,37.41.12,1.84,0,4.07.42,4.91-2.5-17.42.15-34.49.48-51.92-.06Zm15.39,128.49c-.22-1.02-.24-1.29-.28-1.29-15.47-.68-30.95-.39-46.43-.22-1.62.02-3.13.43-4.52,2.62,17.35-1.23,34.25.37,51.24-1.11Zm-37.16-8.4c-2.69-.15-4.58-.28-6.47-.35-1.18-.05-2.76-.07-2.55,1.52.18,1.34,1.67.58,2.62.59,13.69.15,27.39.31,41.08.41,1.01,0,2.79.82,2.86-.89.09-2.16-1.88-1.25-3-1.25-11.77-.05-23.55-.03-34.54-.03ZM109.4,13.79c.03.6.06,1.21.09,1.81h49.31c0-.57,0-1.14,0-1.7-16.47-.67-32.93-.65-49.4-.11Zm-27.8,104.96c-.73,0-1.46-.04-2.19,0-1.1.07-2.94-.49-2.97.92-.05,2.27,2.01.96,3.04.98,10.61.23,21.23.51,31.84.36,3.21-.05,6.38-.12,9.58.2.91.09,1.87-.14,1.9-1.28.03-1.31-1.1-1.23-1.9-1.09-3.11.54-6.16-.91-9.13-.52-10.05,1.32-20.12-.53-30.15.43ZM110.11,12.47c2.96-1.07,5.38-.44,7.8-.41,12.05.11,24.1.09,36.15.05,1.11,0,3.07,1.01,3.07-1.1,0-1.82-1.88-.86-2.83-.88-13.56-.23-27.12-.34-40.68-.5-1.58-.02-2.88.27-3.5,2.85Zm-36.59,101.73c.93,3.18,2.69,2.9,4.25,2.89,14.31-.12,28.63-.63,42.94.19.88.05,2.32.62,2.31-1.08-.01-1.95-1.41-1.1-2.52-1.18-9.74-.65-19.49.66-29.24-.19-5.75-.5-11.54,1.03-17.74-.64Zm.81,12.73c1.64.78,2.02,1.11,2.4,1.11,12.01-.05,24.01-.16,36.02-.19,2.79,0,5.57.22,8.36.33.73.03,1.56.1,1.62-.93.06-1.02-.75-1.07-1.49-1.09-1.03-.04-2.05-.1-3.08-.1-10.55-.06-21.11-.24-31.66-.09-3.65.05-7.46-.74-12.16.97ZM109.68,8.13c4.53,0,8.81-.03,13.08,0,10.8.09,21.59.22,32.39.31.82,0,1.95.19,1.88-1.13-.08-1.4-1.19-.84-1.98-.84-13.74-.09-27.47-.17-41.21-.28-1.6-.01-3.18-.08-4.16,1.94Z"/>
  </g>
</svg>